<svg width="141" height="81" viewBox="0 0 141 81" fill="none" xmlns="http://www.w3.org/2000/svg">
<rect width="141" height="81" fill="#E79215"/>
<path d="M67.3217 56.3292L46.863 45.5729C46.2307 45.2407 45.6701 44.7873 45.2132 44.2385C44.7563 43.6898 44.4122 43.0565 44.2003 42.3748C43.9885 41.6931 43.9133 40.9764 43.9788 40.2657C44.0443 39.5549 44.2493 38.864 44.5821 38.2324C44.9349 37.5649 45.4239 36.9788 46.0176 36.5119C46.6113 36.045 47.2965 35.7078 48.0289 35.5221C48.1498 35.3235 48.2936 35.1397 48.4574 34.9746L59.1398 24.2983C60.4377 23.0014 62.6869 23.1444 64.1618 24.6174C65.6367 26.0904 65.7805 28.3368 64.4842 29.6347L56.0128 38.1005L66.2839 43.5005V15.3571C66.2839 14.7849 66.3967 14.2183 66.6159 13.6897C66.8351 13.161 67.1563 12.6807 67.5613 12.2761C67.9663 11.8715 68.4471 11.5505 68.9762 11.3316C69.5054 11.1126 70.0725 11 70.6452 11C71.2179 10.9999 71.7852 11.1125 72.3144 11.3314C72.8436 11.5502 73.3244 11.8711 73.7295 12.2757C74.1345 12.6802 74.4559 13.1605 74.6751 13.6892C74.8944 14.2178 75.0073 14.7844 75.0073 15.3566V49.8035C75.2418 50.4972 75.3328 51.2313 75.2746 51.9612C75.2165 52.6911 75.0105 53.4016 74.6692 54.0495C74.2075 54.927 73.5144 55.6615 72.6648 56.1736C71.8153 56.6858 70.8417 56.956 69.8495 56.9549C68.9685 56.9546 68.1009 56.7399 67.3217 56.3292ZM12.6223 54.0497C12.2811 53.4018 12.0752 52.6913 12.0171 51.9614C11.9589 51.2315 12.0498 50.4974 12.2842 49.8037V15.3564C12.2843 14.7842 12.3972 14.2176 12.6165 13.6889C12.8358 13.1603 13.1572 12.68 13.5623 12.2755C13.9674 11.871 14.4483 11.5501 14.9775 11.3313C15.5067 11.1124 16.0739 10.9998 16.6467 11C17.8032 11.0001 18.9123 11.4591 19.7301 12.2761C20.5478 13.093 21.0074 14.201 21.0076 15.3564V43.4998L31.2788 38.0998L22.807 29.634C21.5109 28.3366 21.6536 26.0888 23.1294 24.6167C24.6052 23.1446 26.8535 23.0007 28.1514 24.2978L38.8338 34.9741C38.9979 35.1391 39.1418 35.3228 39.2626 35.5216C39.9949 35.7073 40.6801 36.0444 41.2739 36.5112C41.8676 36.9781 42.3566 37.5642 42.7093 38.2317C43.0422 38.8633 43.2473 39.5542 43.3128 40.265C43.3783 40.9757 43.303 41.6924 43.0912 42.3741C42.8794 43.0558 42.5353 43.6891 42.0785 44.2379C41.6216 44.7867 41.0611 45.2402 40.4288 45.5724L19.9699 56.3285C19.1907 56.7394 18.3229 56.9542 17.4419 56.9542C16.4498 56.9553 15.4764 56.6852 14.627 56.1732C13.7775 55.6612 13.0843 54.9268 12.6226 54.0495L12.6223 54.0497ZM43.6459 35.0671H43.6397C42.846 35.0671 42.0602 34.9109 41.3269 34.6074C40.5936 34.304 39.9272 33.8592 39.366 33.2985C38.8047 32.7378 38.3595 32.0721 38.0558 31.3395C37.7521 30.6069 37.5958 29.8217 37.5958 29.0287C37.5958 27.4272 38.2325 25.8913 39.366 24.7589C40.4994 23.6264 42.0367 22.9902 43.6397 22.9901C43.6822 22.9901 43.725 22.9901 43.7673 22.9915C45.35 23.0217 46.8577 23.671 47.9663 24.7999C49.0749 25.9288 49.6959 27.4472 49.6959 29.0287C49.6959 29.8217 49.5397 30.6069 49.236 31.3395C48.9323 32.0722 48.487 32.7378 47.9258 33.2986C47.3646 33.8593 46.6982 34.3041 45.9649 34.6075C45.2316 34.911 44.4457 35.0671 43.652 35.0671H43.6459Z" fill="black"/>
<path d="M127.541 11H81.481V57.0174H127.541V11Z" fill="black"/>
<path d="M84.0261 29.2501H85.004C85.1004 29.2452 85.1954 29.2748 85.2719 29.3337C85.3382 29.3883 85.3813 29.466 85.3924 29.5511L86.4238 36.3363C86.4328 36.3989 86.4406 36.4748 86.4473 36.5638C86.4541 36.6529 86.4619 36.7398 86.4708 36.8247C86.4752 36.9228 86.4797 37.0232 86.4842 37.1259C86.5289 36.9831 86.5746 36.8449 86.6215 36.711C86.6683 36.5772 86.7163 36.452 86.7655 36.3354L89.6382 29.5513C89.6789 29.4693 89.7386 29.3982 89.8123 29.3438C89.8927 29.2811 89.9923 29.248 90.0943 29.2499H90.3822C90.4786 29.245 90.5736 29.2746 90.6501 29.3335C90.7168 29.3887 90.7619 29.4657 90.7774 29.5509L91.9759 36.3361C91.9982 36.4521 92.016 36.5748 92.0295 36.7042C92.043 36.8337 92.0541 36.9697 92.0629 37.1123C92.1075 36.9695 92.1488 36.8335 92.1867 36.7042C92.2246 36.5749 92.2659 36.4522 92.3106 36.3361L95.0098 29.5509C95.0482 29.4664 95.1097 29.3944 95.1872 29.3433C95.2717 29.2816 95.3739 29.2487 95.4786 29.2494H96.4564L92.5254 38.8389H91.3936L90.0943 31.4582C90.0808 31.3869 90.0685 31.3086 90.0574 31.2235C90.0463 31.1383 90.0362 31.0513 90.0273 30.9624C89.996 31.0516 89.9658 31.1386 89.9368 31.2235C89.9079 31.3083 89.8777 31.3865 89.8464 31.4582L86.7319 38.8389H85.6067L84.0261 29.2501ZM98.4525 29.2501H99.4304C99.5268 29.2452 99.6218 29.2748 99.6983 29.3337C99.7646 29.3883 99.8077 29.466 99.8188 29.5511L100.85 36.3363C100.859 36.3989 100.867 36.4748 100.874 36.5638C100.88 36.6529 100.888 36.7398 100.897 36.8247C100.902 36.9228 100.906 37.0232 100.911 37.1259C100.955 36.9831 101.001 36.8449 101.048 36.711C101.095 36.5772 101.143 36.452 101.192 36.3354L104.065 29.5502C104.106 29.4682 104.166 29.397 104.239 29.3426C104.32 29.2799 104.419 29.2468 104.521 29.2487H104.809C104.905 29.2438 105 29.2734 105.076 29.3323C105.143 29.3875 105.188 29.4645 105.204 29.5497L106.402 36.3349C106.425 36.4509 106.442 36.5736 106.456 36.703C106.469 36.8325 106.481 36.9685 106.489 37.1111C106.534 36.9683 106.575 36.8323 106.613 36.703C106.651 36.5738 106.692 36.451 106.737 36.3349L109.436 29.5497C109.475 29.4659 109.536 29.3945 109.613 29.3438C109.698 29.282 109.8 29.2491 109.905 29.2499H110.882L106.952 38.8389H105.82L104.521 31.4582C104.507 31.3869 104.495 31.3086 104.484 31.2235C104.473 31.1383 104.463 31.0513 104.454 30.9624C104.422 31.0516 104.392 31.1386 104.363 31.2235C104.334 31.3083 104.304 31.3865 104.273 31.4582L101.159 38.8389H100.033L98.4525 29.2501ZM117.507 35.4932C117.534 35.5871 117.56 35.6774 117.584 35.7641C117.609 35.8509 117.632 35.9412 117.655 36.0351C117.735 35.8478 117.829 35.6667 117.937 35.4932L121.706 29.4642C121.746 29.3823 121.814 29.3171 121.897 29.2802C121.984 29.2574 122.073 29.2473 122.162 29.2501H123.093L121.914 38.8389H120.816L121.692 31.7529C121.701 31.6637 121.716 31.5677 121.736 31.465C121.756 31.3624 121.777 31.2553 121.799 31.1439L118.07 37.1527C118.022 37.2411 117.952 37.3148 117.865 37.3655C117.779 37.4163 117.68 37.4422 117.58 37.4403H117.406C117.313 37.4457 117.221 37.4204 117.145 37.3684C117.068 37.3163 117.011 37.2403 116.983 37.1524L114.672 31.1302C114.667 31.2373 114.663 31.3422 114.658 31.4449C114.654 31.5475 114.647 31.6435 114.638 31.7327L113.77 38.8389H112.665L113.85 29.2501H114.767C114.856 29.2473 114.945 29.2574 115.031 29.2802C115.069 29.2968 115.103 29.3221 115.129 29.3541C115.155 29.3861 115.173 29.4238 115.182 29.4642L117.507 35.4932Z" fill="#E79215"/>
<path d="M17.7698 64.6285H18.5848C18.6627 64.6246 18.7396 64.6478 18.8024 64.6943C18.8557 64.736 18.8909 64.7967 18.9004 64.8638L19.4077 68.4043C19.4217 68.4955 19.4304 68.5875 19.4338 68.6797C19.4377 68.7781 19.4423 68.8819 19.4477 68.991C19.5169 68.7728 19.5874 68.5772 19.6592 68.4041L21.0974 64.8638C21.1273 64.7981 21.175 64.7422 21.2351 64.7022C21.3017 64.6534 21.3823 64.6274 21.4649 64.6283H21.7046C21.7832 64.6246 21.8607 64.6477 21.9243 64.694C21.9789 64.7357 22.0159 64.7961 22.0282 64.8635L22.6037 68.4043C22.617 68.4894 22.6297 68.5799 22.6416 68.6757C22.6535 68.7715 22.6622 68.8713 22.6676 68.975C22.6969 68.8713 22.7262 68.7708 22.7555 68.6736C22.7848 68.5764 22.8158 68.4866 22.8484 68.4043L24.2186 64.864C24.2478 64.7961 24.297 64.7388 24.3596 64.6997C24.4284 64.6523 24.51 64.6272 24.5935 64.6278H25.4124L23.0512 70.3999H22.1123L21.4619 66.4007C21.4539 66.3501 21.4452 66.2949 21.4358 66.2351C21.4264 66.1753 21.4191 66.1122 21.4139 66.0457C21.3926 66.1122 21.3706 66.1753 21.3479 66.2351C21.3252 66.2949 21.3032 66.3501 21.2818 66.4007L19.6474 70.3999H18.7124L17.7698 64.6285ZM33.1545 67.1271C33.1559 67.4342 33.1203 67.7403 33.0485 68.039C32.9814 68.3187 32.8794 68.5889 32.7449 68.8433C32.6162 69.0865 32.4564 69.3119 32.2695 69.5139C32.0862 69.7118 31.8765 69.8835 31.6463 70.0243C31.4128 70.1667 31.1608 70.2762 30.8973 70.3497C30.6219 70.4264 30.3372 70.4647 30.0513 70.4636C29.711 70.469 29.3733 70.4024 29.0606 70.268C28.7755 70.143 28.5202 69.9589 28.3116 69.728C28.1012 69.4923 27.9403 69.2167 27.8383 68.9178C27.7265 68.5916 27.6708 68.2488 27.6738 67.904C27.6725 67.5968 27.708 67.2905 27.7798 66.9918C27.847 66.7122 27.949 66.442 28.0835 66.1877C28.2122 65.9446 28.372 65.7192 28.5589 65.5172C28.7425 65.3189 28.9521 65.1464 29.1821 65.0044C29.4152 64.8608 29.6674 64.7507 29.9313 64.6771C30.2083 64.6002 30.4947 64.562 30.7822 64.5635C31.1226 64.558 31.4602 64.6247 31.773 64.7591C32.0577 64.8837 32.3124 65.0679 32.52 65.2991C32.7297 65.5357 32.8899 65.8118 32.9914 66.1112C33.1027 66.4382 33.1579 66.7817 33.1545 67.1271ZM32.0918 67.1505C32.0947 66.9102 32.0617 66.6707 31.9939 66.4401C31.9359 66.2411 31.8395 66.0554 31.7102 65.8933C31.5882 65.7426 31.4331 65.6221 31.2569 65.5411C31.0673 65.4563 30.8614 65.414 30.6537 65.4174C30.3819 65.4138 30.113 65.474 29.8687 65.593C29.6316 65.7112 29.4246 65.8818 29.2634 66.0919C29.0866 66.3251 28.9545 66.589 28.8738 66.8702C28.7784 67.1981 28.7319 67.5383 28.7358 67.8798C28.733 68.12 28.7653 68.3593 28.8317 68.5902C28.8881 68.7884 28.9831 68.9736 29.1113 69.1349C29.232 69.2847 29.3859 69.4044 29.5609 69.4843C29.7515 69.5682 29.958 69.6097 30.1663 69.6059C30.44 69.6096 30.7109 69.5495 30.9573 69.4303C31.1944 69.3131 31.402 69.1439 31.5645 68.9354C31.7414 68.7044 31.8735 68.4424 31.9539 68.1629C32.0496 67.8343 32.096 67.4933 32.0918 67.151V67.1505ZM37.2414 68.1244L36.9618 70.3999H35.931L36.6382 64.6285H38.2801C38.5687 64.6228 38.8566 64.6583 39.135 64.7342C39.3475 64.7921 39.5459 64.8926 39.7183 65.0295C39.866 65.1504 39.9814 65.3061 40.0539 65.4827C40.1274 65.6667 40.164 65.8633 40.1617 66.0614C40.1633 66.2745 40.1315 66.4865 40.0678 66.6899C40.0074 66.8809 39.9163 67.0609 39.798 67.2226C39.678 67.3849 39.5323 67.5265 39.3665 67.6417C39.1893 67.7647 38.9938 67.859 38.7872 67.9211C38.8489 67.9587 38.9054 68.0044 38.955 68.0568C39.0082 68.1138 39.0527 68.1784 39.0869 68.2484L40.1178 70.3999H39.187C39.1095 70.4026 39.0329 70.3839 38.9654 70.3459C38.9056 70.3102 38.8587 70.2565 38.8314 70.1924L37.9854 68.3205C37.961 68.2606 37.9203 68.2087 37.8679 68.1707C37.8012 68.135 37.7258 68.1187 37.6503 68.1237L37.2414 68.1244ZM37.577 65.4263L37.3333 67.386H37.9325C38.1157 67.3903 38.298 67.3599 38.4697 67.2964C38.6107 67.2429 38.7377 67.1583 38.8413 67.0489C38.9391 66.9426 39.0133 66.8168 39.0589 66.6798C39.1077 66.5331 39.132 66.3794 39.1308 66.2248C39.1369 66.1161 39.1193 66.0073 39.0793 65.906C39.0393 65.8047 38.9778 65.7132 38.8991 65.6378C38.6953 65.481 38.4404 65.4057 38.184 65.4265L37.577 65.4263ZM44.6002 67.0667H44.8239C44.9051 67.0689 44.986 67.0546 45.0615 67.0247C45.1309 66.9936 45.1919 66.9463 45.2394 66.8869L46.9093 64.8513C46.9668 64.7754 47.0423 64.7151 47.129 64.6757C47.2156 64.6424 47.3079 64.6264 47.4007 64.6288H48.2916L46.2471 67.0435C46.1922 67.1088 46.1327 67.1701 46.0692 67.2271C46.0149 67.2757 45.9537 67.3161 45.8875 67.3468C45.9642 67.3767 46.0342 67.4214 46.0934 67.4785C46.157 67.5431 46.2103 67.6172 46.2513 67.6981L47.7163 70.3999H46.8054C46.7531 70.4007 46.7009 70.396 46.6496 70.3859C46.6113 70.3781 46.5743 70.3646 46.5399 70.3459C46.5106 70.3298 46.4849 70.3081 46.464 70.2821C46.4431 70.2553 46.4251 70.2266 46.4102 70.1962L45.2204 68.0451C45.1888 67.9817 45.1386 67.9294 45.0765 67.8953C44.9948 67.8598 44.9059 67.8437 44.8169 67.8483H44.5053L44.1887 70.3999H43.158L43.8651 64.6243H44.9038L44.6002 67.0667ZM55.7343 67.1266C55.7356 67.4337 55.7001 67.7399 55.6283 68.0385C55.5614 68.3184 55.4596 68.5888 55.3254 68.8433C55.1966 69.0865 55.0368 69.3119 54.85 69.5139C54.6664 69.7118 54.4565 69.8836 54.226 70.0243C53.9926 70.1668 53.7406 70.2764 53.4771 70.3499C53.2017 70.4266 52.917 70.465 52.6311 70.4638C52.2907 70.4693 51.953 70.4026 51.6403 70.2682C51.3552 70.1432 51.1 69.9592 50.8914 69.7282C50.681 69.4925 50.52 69.217 50.4181 68.918C50.3062 68.5918 50.2506 68.249 50.2536 67.9042C50.2522 67.597 50.2878 67.2908 50.3596 66.9921C50.4268 66.7124 50.5288 66.4423 50.6632 66.1879C50.792 65.9448 50.9518 65.7194 51.1386 65.5174C51.3222 65.3191 51.5318 65.1466 51.7618 65.0046C51.995 64.8611 52.2472 64.7509 52.511 64.6773C52.788 64.6005 53.0744 64.5622 53.3619 64.5637C53.7023 64.5583 54.04 64.6249 54.3527 64.7593C54.6374 64.884 54.8921 65.0681 55.0998 65.2993C55.3094 65.536 55.4697 65.8121 55.5712 66.1114C55.6825 66.4384 55.7376 66.7818 55.7343 67.1271V67.1266ZM54.6716 67.1501C54.6745 66.9097 54.6416 66.6703 54.5738 66.4396C54.5158 66.2406 54.4195 66.0549 54.2902 65.8928C54.1682 65.7422 54.0131 65.6216 53.8369 65.5406C53.6473 65.4558 53.4413 65.4136 53.2336 65.4169C52.9619 65.4134 52.693 65.4735 52.4487 65.5925C52.2116 65.7107 52.0046 65.8813 51.8434 66.0914C51.6666 66.3247 51.5345 66.5885 51.4537 66.8698C51.3584 67.1977 51.3119 67.5379 51.3158 67.8793C51.3127 68.1203 51.345 68.3605 51.4117 68.5921C51.468 68.7903 51.5631 68.9754 51.6913 69.1368C51.8121 69.2859 51.9659 69.4049 52.1406 69.4843C52.3312 69.5682 52.5378 69.6097 52.746 69.6059C53.0198 69.6096 53.2906 69.5495 53.537 69.4303C53.7742 69.3131 53.9817 69.1439 54.1443 68.9354C54.3213 68.7045 54.4534 68.4425 54.5339 68.1629C54.6295 67.8343 54.6759 67.4933 54.6716 67.151V67.1501ZM60.74 69.5683C60.9167 69.5703 61.0918 69.5342 61.2532 69.4625C61.409 69.392 61.5485 69.2901 61.6628 69.1631C61.785 69.0262 61.883 68.8695 61.9524 68.6996C62.0313 68.5068 62.083 68.304 62.1061 68.097L62.5335 64.6285H63.5675L63.1445 68.097C63.1057 68.4248 63.0141 68.7442 62.8733 69.0429C62.742 69.3232 62.5613 69.5777 62.3399 69.7942C62.1209 70.0057 61.8632 70.1731 61.5808 70.2872C61.2792 70.4081 60.9568 70.4685 60.6319 70.465C60.3481 70.4699 60.066 70.4204 59.8009 70.3192C59.5691 70.2291 59.3597 70.0894 59.1876 69.91C59.0182 69.7294 58.8888 69.5152 58.8081 69.2812C58.719 69.0226 58.675 68.7506 58.6781 68.4771C58.6784 68.3503 58.6862 68.2237 58.7016 68.0979L59.1211 64.6295H60.1598L59.7333 68.093C59.7279 68.1435 59.7239 68.1927 59.7213 68.2406C59.7186 68.2885 59.7173 68.3351 59.7173 68.3803C59.7152 68.5463 59.7374 68.7117 59.7831 68.8713C59.8221 69.0085 59.8887 69.1363 59.9788 69.2469C60.0656 69.3509 60.1758 69.433 60.3003 69.4864C60.4395 69.5444 60.5892 69.5727 60.74 69.5697V69.5683ZM70.7075 64.6285L70.6004 65.4787H69.0176L68.4104 70.3999H67.3797L67.9829 65.4787H66.3969L66.5008 64.6285H70.7075ZM77.1714 64.6285H77.9864C78.0644 64.6246 78.1413 64.6478 78.204 64.6943C78.2574 64.736 78.2925 64.7967 78.302 64.8638L78.8094 68.4043C78.8233 68.4955 78.832 68.5875 78.8355 68.6797C78.8394 68.7778 78.8438 68.8817 78.8489 68.9912C78.9181 68.7731 78.9886 68.5774 79.0604 68.4043L80.4986 64.864C80.5285 64.7983 80.5763 64.7424 80.6365 64.7025C80.7031 64.6536 80.7837 64.6277 80.8663 64.6285H81.106C81.1846 64.6248 81.2621 64.648 81.3258 64.6943C81.3803 64.7359 81.4173 64.7963 81.4296 64.8638L82.0054 68.4043C82.0187 68.4894 82.0313 68.5799 82.0432 68.6757C82.0551 68.7715 82.0635 68.8713 82.0684 68.975C82.0977 68.8713 82.127 68.7708 82.1562 68.6736C82.1855 68.5764 82.2165 68.4866 82.2491 68.4043L83.6194 64.864C83.6485 64.7961 83.6977 64.7388 83.7604 64.6997C83.8291 64.6523 83.9107 64.6272 83.9942 64.6278H84.8132L82.4528 70.3999H81.5128L80.8628 66.4007C80.8548 66.3501 80.8461 66.2949 80.8367 66.2351C80.8273 66.1753 80.82 66.1122 80.8149 66.0457C80.7936 66.1122 80.7716 66.1753 80.7491 66.2351C80.7265 66.2949 80.7046 66.3501 80.6833 66.4007L79.0491 70.3999H78.1143L77.1714 64.6285ZM88.2176 70.3999H87.1749L87.882 64.6285H88.9247L88.2176 70.3999ZM96.2546 64.6285L96.1467 65.4787H94.5657L93.9594 70.3999H92.9277L93.531 65.4787H91.9449L92.0488 64.6285H96.2546ZM103.063 70.3999H102.02L102.331 67.8643H99.903L99.5914 70.3999H98.5487L99.2598 64.6285H100.302L99.9909 67.1311H102.424L102.735 64.6285H103.778L103.063 70.3999ZM113.462 68.093C113.486 68.1621 113.507 68.2326 113.526 68.3043C113.545 68.376 113.563 68.4491 113.582 68.5238C113.613 68.4493 113.648 68.3761 113.686 68.3043C113.724 68.2324 113.764 68.162 113.806 68.093L115.811 64.7962C115.831 64.7614 115.856 64.7297 115.885 64.7022C115.908 64.6808 115.935 64.6639 115.965 64.6522C115.995 64.6411 116.027 64.6344 116.059 64.6323C116.093 64.6296 116.133 64.6283 116.179 64.6283H116.966L116.255 70.3999H115.344L115.808 66.6401C115.816 66.571 115.828 66.4951 115.844 66.4126C115.86 66.3301 115.877 66.2463 115.896 66.1612L113.909 69.458C113.869 69.528 113.81 69.5859 113.74 69.6256C113.672 69.6629 113.595 69.6821 113.518 69.6815H113.374C113.3 69.6832 113.227 69.6638 113.164 69.6256C113.103 69.5865 113.057 69.5272 113.034 69.458L111.844 66.1739C111.841 66.2563 111.838 66.3362 111.834 66.4133C111.83 66.4905 111.824 66.5609 111.816 66.6246L111.361 70.3999H110.446L111.157 64.6285H111.937C111.982 64.6285 112.022 64.6298 112.057 64.6325C112.088 64.6345 112.119 64.6412 112.149 64.6525C112.175 64.6631 112.199 64.6803 112.217 64.7025C112.238 64.731 112.256 64.7626 112.268 64.7964L113.462 68.093ZM123.773 64.6285L123.669 65.4547H121.344L121.144 67.0951H122.97L122.87 67.8894H121.045L120.837 69.5737H123.17L123.066 70.3999H119.694L120.405 64.6285H123.773Z" fill="black"/>
</svg>
