<svg width="141" height="81" viewBox="0 0 141 81" fill="none" xmlns="http://www.w3.org/2000/svg">
<path d="M137.24 80.8826H3.75993C2.787 80.8826 1.87227 80.5041 1.1843 79.8167C0.496324 79.1294 0.117432 78.2155 0.117432 77.2435V3.7565C0.117432 2.78447 0.496324 1.87058 1.1843 1.18325C1.87227 0.495912 2.787 0.117371 3.75993 0.117371H137.24C138.213 0.117371 139.128 0.495912 139.816 1.18325C140.504 1.87058 140.882 2.78447 140.882 3.7565V77.2435C140.882 78.2155 140.504 79.1294 139.816 79.8167C139.128 80.5041 138.213 80.8826 137.24 80.8826Z" fill="#E79215"/>
<path d="M3.76 0.234783C2.81845 0.234783 1.93324 0.601115 1.26744 1.26627C0.601671 1.93145 0.235 2.81584 0.235 3.75652V77.2435C0.235 78.1842 0.601671 79.0686 1.26744 79.7337C1.93324 80.3989 2.81845 80.7652 3.76 80.7652H137.24C138.182 80.7652 139.067 80.3989 139.733 79.7337C140.398 79.0686 140.765 78.1842 140.765 77.2435V3.75652C140.765 2.81584 140.398 1.93145 139.733 1.26627C139.067 0.601115 138.182 0.234783 137.24 0.234783H3.76ZM3.76 0H137.24C139.317 0 141 1.68185 141 3.75652V77.2435C141 79.3181 139.317 81 137.24 81H3.76C1.68341 81 0 79.3181 0 77.2435V3.75652C0 1.68185 1.68341 0 3.76 0Z" fill="#E79215"/>
<path d="M68.3258 56.5988L47.8672 45.8425C47.2349 45.5103 46.6742 45.0568 46.2174 44.5081C45.7605 43.9594 45.4163 43.3261 45.2045 42.6444C44.9927 41.9627 44.9174 41.246 44.9829 40.5353C45.0484 39.8245 45.2534 39.1336 45.5863 38.502C45.939 37.8345 46.428 37.2483 47.0217 36.7815C47.6154 36.3146 48.3007 35.9774 49.033 35.7917C49.1539 35.5931 49.2977 35.4093 49.4616 35.2442L60.144 24.5679C61.4419 23.271 63.6911 23.414 65.166 24.887C66.6408 26.36 66.7847 28.6064 65.4884 29.9043L57.0169 38.3701L67.2881 43.7701V15.6267C67.2881 15.0545 67.4008 14.4879 67.62 13.9592C67.8392 13.4306 68.1604 12.9503 68.5654 12.5457C68.9704 12.1411 69.4512 11.8201 69.9804 11.6012C70.5095 11.3822 71.0766 11.2696 71.6493 11.2696C72.2221 11.2695 72.7894 11.3821 73.3186 11.6009C73.8478 11.8198 74.3285 12.1407 74.7336 12.5453C75.1387 12.9498 75.46 13.4301 75.6793 13.9588C75.8985 14.4874 76.0114 15.054 76.0115 15.6262V50.0731C76.246 50.7668 76.3369 51.5009 76.2788 52.2308C76.2206 52.9607 76.0147 53.6712 75.6733 54.3191C75.2117 55.1965 74.5185 55.9311 73.669 56.4432C72.8195 56.9554 71.8459 57.2255 70.8537 57.2245C69.9727 57.2242 69.1051 57.0094 68.3258 56.5988ZM13.6265 54.3193C13.2852 53.6714 13.0793 52.9609 13.0212 52.231C12.9631 51.5011 13.0539 50.767 13.2883 50.0733V15.626C13.2885 15.0537 13.4013 14.4872 13.6206 13.9585C13.8399 13.4299 14.1614 12.9496 14.5665 12.5451C14.9716 12.1405 15.4524 11.8197 15.9817 11.6008C16.5109 11.382 17.0781 11.2694 17.6509 11.2696C18.8073 11.2697 19.9164 11.7287 20.7342 12.5457C21.552 13.3626 22.0115 14.4706 22.0118 15.626V43.7694L32.2829 38.3694L23.8111 29.9036C22.5151 28.6062 22.6578 26.3584 24.1336 24.8863C25.6094 23.4142 27.8576 23.2703 29.1555 24.5674L39.8379 35.2437C40.002 35.4087 40.1459 35.5924 40.2667 35.7912C40.9991 35.9768 41.6843 36.314 42.278 36.7808C42.8717 37.2477 43.3608 37.8338 43.7135 38.5013C44.0463 39.1329 44.2514 39.8238 44.3169 40.5346C44.3825 41.2453 44.3072 41.962 44.0954 42.6437C43.8836 43.3254 43.5395 43.9587 43.0826 44.5075C42.6258 45.0563 42.0652 45.5098 41.4329 45.842L20.974 56.5981C20.1949 57.009 19.3271 57.2238 18.4461 57.2238C17.454 57.2249 16.4806 56.9548 15.6311 56.4428C14.7816 55.9308 14.0884 55.1964 13.6267 54.3191L13.6265 54.3193ZM44.65 35.3367H44.6438C43.8501 35.3367 43.0643 35.1805 42.331 34.877C41.5977 34.5736 40.9314 34.1288 40.3701 33.5681C39.8089 33.0074 39.3637 32.3417 39.06 31.6091C38.7562 30.8765 38.5999 30.0913 38.5999 29.2983C38.5999 27.6968 39.2367 26.1609 40.3701 25.0284C41.5036 23.896 43.0409 23.2598 44.6438 23.2597C44.6864 23.2597 44.7291 23.2597 44.7714 23.2611C46.3541 23.2912 47.8619 23.9406 48.9705 25.0695C50.0791 26.1984 50.7001 27.7168 50.7 29.2983C50.7001 30.0913 50.5439 30.8765 50.2401 31.6091C49.9364 32.3418 49.4912 33.0074 48.93 33.5682C48.3687 34.1289 47.7024 34.5737 46.9691 34.8771C46.2358 35.1806 45.4498 35.3367 44.6561 35.3367H44.65Z" fill="black"/>
<path d="M128.545 11.2696H82.4851V57.287H128.545V11.2696Z" fill="black"/>
<path d="M85.0303 29.5197H86.0081C86.1045 29.5148 86.1995 29.5444 86.276 29.6033C86.3423 29.6579 86.3854 29.7356 86.3966 29.8207L87.428 36.6059C87.4369 36.6685 87.4447 36.7443 87.4515 36.8334C87.4582 36.9225 87.466 37.0094 87.475 37.0943C87.4794 37.1924 87.4838 37.2928 87.4884 37.3955C87.533 37.2527 87.5788 37.1144 87.6256 36.9806C87.6725 36.8468 87.7205 36.7216 87.7697 36.605L90.6423 29.8209C90.6831 29.7389 90.7428 29.6678 90.8164 29.6134C90.8969 29.5507 90.9964 29.5176 91.0984 29.5195H91.3863C91.4827 29.5145 91.5777 29.5442 91.6542 29.603C91.7209 29.6583 91.766 29.7353 91.7816 29.8205L92.9801 36.6057C93.0023 36.7217 93.0202 36.8444 93.0337 36.9738C93.0471 37.1033 93.0583 37.2393 93.067 37.3819C93.1117 37.2391 93.153 37.1031 93.1909 36.9738C93.2288 36.8445 93.2701 36.7218 93.3147 36.6057L96.0139 29.8205C96.0524 29.736 96.1139 29.664 96.1914 29.6129C96.2759 29.5512 96.3781 29.5182 96.4828 29.519H97.4606L93.5295 39.1085H92.3978L91.0984 31.7278C91.085 31.6565 91.0727 31.5782 91.0615 31.493C91.0504 31.4079 91.0404 31.3209 91.0315 31.232C91.0001 31.3212 90.97 31.4082 90.941 31.493C90.912 31.5779 90.8819 31.6561 90.8505 31.7278L87.7361 39.1085H86.6109L85.0303 29.5197ZM99.4567 29.5197H100.435C100.531 29.5148 100.626 29.5444 100.702 29.6033C100.769 29.6579 100.812 29.7356 100.823 29.8207L101.854 36.6059C101.863 36.6685 101.871 36.7443 101.878 36.8334C101.885 36.9225 101.892 37.0094 101.901 37.0943C101.906 37.1924 101.91 37.2928 101.915 37.3955C101.959 37.2527 102.005 37.1144 102.052 36.9806C102.099 36.8468 102.147 36.7216 102.196 36.605L105.069 29.8197C105.11 29.7378 105.17 29.6666 105.244 29.6122C105.324 29.5495 105.424 29.5164 105.526 29.5183H105.813C105.909 29.5134 106.004 29.543 106.081 29.6019C106.147 29.6571 106.192 29.7341 106.208 29.8193L107.407 36.6045C107.429 36.7205 107.447 36.8432 107.46 36.9726C107.474 37.1021 107.485 37.2381 107.493 37.3807C107.538 37.2379 107.579 37.1019 107.617 36.9726C107.655 36.8433 107.696 36.7206 107.741 36.6045L110.44 29.8193C110.479 29.7355 110.54 29.6641 110.617 29.6134C110.702 29.5516 110.804 29.5187 110.909 29.5195H111.886L107.956 39.1085H106.824L105.525 31.7278C105.511 31.6565 105.499 31.5782 105.488 31.493C105.477 31.4079 105.467 31.3209 105.458 31.232C105.427 31.3212 105.396 31.4082 105.367 31.493C105.338 31.5779 105.308 31.6561 105.277 31.7278L102.163 39.1085H101.038L99.4567 29.5197ZM118.511 35.7628C118.538 35.8567 118.564 35.947 118.588 36.0337C118.613 36.1205 118.636 36.2108 118.659 36.3047C118.739 36.1174 118.834 35.9363 118.941 35.7628L122.711 29.7338C122.751 29.6519 122.818 29.5867 122.901 29.5497C122.988 29.527 123.077 29.5169 123.166 29.5197H124.097L122.918 39.1085H121.82L122.696 32.0225C122.705 31.9333 122.72 31.8373 122.74 31.7346C122.76 31.632 122.781 31.5249 122.803 31.4135L119.074 37.4222C119.027 37.5107 118.956 37.5844 118.869 37.6351C118.783 37.6859 118.684 37.7117 118.584 37.7099H118.41C118.317 37.7153 118.226 37.69 118.149 37.638C118.073 37.5859 118.015 37.5099 117.987 37.422L115.676 31.3998C115.671 31.5069 115.667 31.6118 115.663 31.7144C115.658 31.8171 115.651 31.9131 115.643 32.0023L114.774 39.1085H113.669L114.854 29.5197H115.771C115.86 29.5169 115.949 29.527 116.035 29.5497C116.073 29.5664 116.107 29.5917 116.133 29.6237C116.159 29.6557 116.177 29.6934 116.186 29.7338L118.511 35.7628Z" fill="#E79215"/>
<path d="M18.7739 64.8981H19.5889C19.6669 64.8942 19.7438 64.9174 19.8065 64.9638C19.8599 65.0056 19.895 65.0663 19.9045 65.1334L20.4119 68.6739C20.4258 68.7651 20.4345 68.8571 20.438 68.9493C20.4419 69.0477 20.4465 69.1515 20.4518 69.2606C20.5211 69.0424 20.5916 68.8468 20.6633 68.6736L22.1015 65.1334C22.1314 65.0677 22.1791 65.0118 22.2392 64.9718C22.3058 64.923 22.3865 64.897 22.4691 64.8979H22.7088C22.7874 64.8941 22.8649 64.9173 22.9285 64.9636C22.983 65.0052 23.02 65.0657 23.0324 65.1331L23.6079 68.6739C23.6212 68.759 23.6338 68.8495 23.6457 68.9453C23.6576 69.0411 23.6663 69.1409 23.6718 69.2446C23.7011 69.1409 23.7304 69.0404 23.7597 68.9432C23.789 68.846 23.8199 68.7562 23.8525 68.6739L25.2228 65.1336C25.2519 65.0657 25.3011 65.0084 25.3638 64.9692C25.4325 64.9219 25.5141 64.8968 25.5976 64.8974H26.4166L24.0553 70.6695H23.1165L22.466 66.6702C22.458 66.6197 22.4493 66.5645 22.4399 66.5047C22.4305 66.4449 22.4232 66.3818 22.4181 66.3153C22.3968 66.3818 22.3748 66.4449 22.352 66.5047C22.3293 66.5645 22.3073 66.6197 22.286 66.6702L20.6516 70.6695H19.7165L18.7739 64.8981ZM34.1587 67.3967C34.16 67.7038 34.1245 68.0099 34.0527 68.3086C33.9855 68.5883 33.8835 68.8585 33.7491 69.1129C33.6203 69.356 33.4605 69.5814 33.2737 69.7835C33.0903 69.9814 32.8806 70.1531 32.6504 70.2939C32.417 70.4363 32.165 70.5458 31.9015 70.6193C31.6261 70.696 31.3414 70.7343 31.0555 70.7332C30.7151 70.7386 30.3775 70.672 30.0647 70.5376C29.7796 70.4126 29.5244 70.2285 29.3158 69.9976C29.1054 69.7619 28.9444 69.4863 28.8425 69.1874C28.7306 68.8612 28.675 68.5184 28.678 68.1736C28.6766 67.8664 28.7122 67.5601 28.784 67.2614C28.8512 66.9818 28.9532 66.7116 29.0876 66.4573C29.2164 66.2142 29.3762 65.9888 29.563 65.7868C29.7466 65.5885 29.9563 65.416 30.1862 65.274C30.4194 65.1304 30.6716 65.0203 30.9354 64.9467C31.2125 64.8698 31.4988 64.8316 31.7863 64.8331C32.1267 64.8276 32.4644 64.8943 32.7771 65.0286C33.0618 65.1533 33.3166 65.3375 33.5242 65.5686C33.7338 65.8053 33.8941 66.0814 33.9956 66.3808C34.1069 66.7078 34.162 67.0513 34.1587 67.3967ZM33.096 67.4201C33.0988 67.1798 33.0658 66.9403 32.998 66.7097C32.94 66.5107 32.8437 66.325 32.7144 66.1629C32.5924 66.0122 32.4373 65.8917 32.261 65.8107C32.0714 65.7259 31.8655 65.6836 31.6578 65.687C31.386 65.6834 31.1172 65.7436 30.8729 65.8626C30.6358 65.9808 30.4288 66.1514 30.2675 66.3615C30.0908 66.5947 29.9587 66.8586 29.8779 67.1398C29.7826 67.4677 29.7361 67.8079 29.74 68.1494C29.7371 68.3896 29.7694 68.6289 29.8358 68.8598C29.8922 69.058 29.9873 69.2432 30.1155 69.4045C30.2361 69.5543 30.39 69.674 30.565 69.7539C30.7556 69.8378 30.9622 69.8793 31.1704 69.8755C31.4442 69.8792 31.715 69.8191 31.9614 69.6999C32.1986 69.5827 32.4061 69.4135 32.5687 69.205C32.7456 68.974 32.8777 68.712 32.9581 68.4325C33.0537 68.1039 33.1002 67.7629 33.096 67.4206V67.4201ZM38.2456 68.394L37.9659 70.6695H36.9352L37.6423 64.8981H39.2843C39.5728 64.8924 39.8607 64.9279 40.1392 65.0038C40.3516 65.0617 40.5501 65.1622 40.7225 65.2991C40.8702 65.42 40.9855 65.5757 41.058 65.7522C41.1315 65.9363 41.1682 66.1329 41.1659 66.331C41.1674 66.5441 41.1357 66.7561 41.0719 66.9595C41.0115 67.1505 40.9204 67.3305 40.8021 67.4922C40.6822 67.6545 40.5364 67.7961 40.3707 67.9113C40.1935 68.0343 39.998 68.1286 39.7914 68.1907C39.8531 68.2283 39.9095 68.2739 39.9592 68.3264C40.0124 68.3834 40.0568 68.4479 40.091 68.518L41.122 70.6695H40.1911C40.1137 70.6721 40.037 70.6535 39.9695 70.6155C39.9097 70.5798 39.8628 70.526 39.8356 70.462L38.9896 68.5901C38.9652 68.5302 38.9245 68.4783 38.8721 68.4403C38.8054 68.4046 38.73 68.3883 38.6545 68.3933L38.2456 68.394ZM38.5811 65.6959L38.3374 67.6556H38.9367C39.1198 67.6599 39.3021 67.6295 39.4739 67.5659C39.6148 67.5125 39.7418 67.4279 39.8454 67.3185C39.9433 67.2122 40.0175 67.0864 40.063 66.9494C40.1119 66.8027 40.1362 66.649 40.135 66.4944C40.141 66.3856 40.1234 66.2769 40.0834 66.1756C40.0434 66.0743 39.982 65.9828 39.9032 65.9074C39.6995 65.7506 39.4445 65.6753 39.1881 65.6961L38.5811 65.6959ZM45.6043 67.3363H45.8281C45.9093 67.3385 45.9901 67.3242 46.0657 67.2943C46.1351 67.2632 46.1961 67.2159 46.2435 67.1565L47.9135 65.1209C47.9709 65.045 48.0465 64.9847 48.1332 64.9453C48.2198 64.912 48.3121 64.896 48.4048 64.8983H49.2957L47.2512 67.3131C47.1963 67.3784 47.1369 67.4397 47.0733 67.4967C47.019 67.5453 46.9578 67.5857 46.8917 67.6164C46.9684 67.6462 47.0383 67.691 47.0975 67.7481C47.1612 67.8127 47.2145 67.8868 47.2555 67.9677L48.7204 70.6695H47.8096C47.7573 70.6703 47.7051 70.6656 47.6538 70.6554C47.6154 70.6477 47.5784 70.6342 47.544 70.6155C47.5148 70.5994 47.489 70.5777 47.4681 70.5517C47.4473 70.5249 47.4293 70.4961 47.4143 70.4657L46.2245 68.3147C46.1929 68.2513 46.1428 68.199 46.0807 68.1649C45.9989 68.1294 45.91 68.1133 45.821 68.1179H45.5094L45.1929 70.6695H44.1622L44.8693 64.8939H45.908L45.6043 67.3363ZM56.7384 67.3962C56.7398 67.7033 56.7042 68.0095 56.6324 68.3081C56.5655 68.588 56.4638 68.8584 56.3295 69.1129C56.2008 69.356 56.041 69.5814 55.8541 69.7835C55.6706 69.9814 55.4606 70.1532 55.2302 70.2939C54.9967 70.4364 54.7447 70.546 54.4812 70.6195C54.2058 70.6962 53.9211 70.7345 53.6352 70.7334C53.2949 70.7388 52.9572 70.6722 52.6445 70.5378C52.3594 70.4128 52.1041 70.2287 51.8955 69.9978C51.6851 69.7621 51.5242 69.4866 51.4222 69.1876C51.3104 68.8614 51.2547 68.5186 51.2577 68.1738C51.2563 67.8666 51.2919 67.5604 51.3637 67.2617C51.4309 66.982 51.5329 66.7119 51.6673 66.4575C51.7961 66.2144 51.9559 65.989 52.1427 65.787C52.3263 65.5887 52.536 65.4162 52.766 65.2742C52.9991 65.1307 53.2513 65.0205 53.5152 64.9469C53.7922 64.8701 54.0786 64.8318 54.3661 64.8333C54.7065 64.8279 55.0441 64.8945 55.3568 65.0289C55.6416 65.1536 55.8963 65.3377 56.1039 65.5689C56.3136 65.8055 56.4738 66.0816 56.5753 66.381C56.6866 66.7079 56.7417 67.0513 56.7384 67.3967V67.3962ZM55.6757 67.4197C55.6786 67.1793 55.6457 66.9399 55.578 66.7092C55.52 66.5102 55.4236 66.3245 55.2943 66.1624C55.1724 66.0118 55.0172 65.8912 54.841 65.8102C54.6514 65.7254 54.4455 65.6832 54.2378 65.6865C53.966 65.683 53.6972 65.7431 53.4529 65.8621C53.2158 65.9803 53.0087 66.1509 52.8475 66.361C52.6707 66.5943 52.5386 66.8581 52.4579 67.1393C52.3625 67.4673 52.3161 67.8074 52.3199 68.1489C52.3169 68.3899 52.3492 68.6301 52.4158 68.8617C52.4722 69.0599 52.5672 69.245 52.6955 69.4064C52.8162 69.5555 52.9701 69.6745 53.1448 69.7539C53.3354 69.8378 53.5419 69.8793 53.7502 69.8755C54.0239 69.8792 54.2947 69.8191 54.5412 69.6999C54.7783 69.5827 54.9859 69.4135 55.1484 69.205C55.3254 68.9741 55.4576 68.7121 55.538 68.4325C55.6336 68.1038 55.68 67.7629 55.6757 67.4206V67.4197ZM61.7441 69.8379C61.9209 69.8399 62.0959 69.8038 62.2574 69.732C62.4132 69.6616 62.5526 69.5597 62.667 69.4327C62.7892 69.2958 62.8871 69.1391 62.9565 68.9692C63.0354 68.7764 63.0872 68.5736 63.1102 68.3666L63.5377 64.8981H64.5717L64.1487 68.3666C64.1099 68.6944 64.0183 69.0138 63.8775 69.3125C63.7462 69.5928 63.5655 69.8473 63.344 70.0638C63.125 70.2753 62.8673 70.4427 62.585 70.5568C62.2834 70.6777 61.961 70.7381 61.636 70.7346C61.3523 70.7395 61.0702 70.69 60.8051 70.5888C60.5732 70.4987 60.3639 70.359 60.1917 70.1795C60.0223 69.999 59.893 69.7847 59.8122 69.5508C59.7231 69.2922 59.6792 69.0202 59.6823 68.7467C59.6825 68.6199 59.6904 68.4933 59.7058 68.3675L60.1252 64.899H61.1639L60.7374 68.3626C60.7321 68.4131 60.7281 68.4623 60.7254 68.5102C60.7228 68.5581 60.7214 68.6047 60.7214 68.6499C60.7193 68.8159 60.7415 68.9813 60.7872 69.1409C60.8262 69.2781 60.8928 69.4059 60.983 69.5165C61.0698 69.6205 61.1799 69.7025 61.3045 69.756C61.4436 69.8139 61.5934 69.8423 61.7441 69.8393V69.8379ZM71.7117 64.8981L71.6045 65.7483H70.0218L69.4145 70.6695H68.3838L68.9871 65.7483H67.4011L67.5049 64.8981H71.7117ZM78.1756 64.8981H78.9906C79.0685 64.8942 79.1454 64.9174 79.2082 64.9638C79.2616 65.0056 79.2967 65.0663 79.3062 65.1334L79.8135 68.6739C79.8275 68.7651 79.8362 68.8571 79.8396 68.9493C79.8435 69.0474 79.848 69.1513 79.853 69.2608C79.9223 69.0426 79.9928 68.847 80.0645 68.6739L81.5027 65.1336C81.5327 65.0679 81.5805 65.012 81.6407 64.9721C81.7072 64.9232 81.7879 64.8973 81.8705 64.8981H82.1102C82.1888 64.8944 82.2663 64.9176 82.3299 64.9638C82.3844 65.0055 82.4215 65.0659 82.4338 65.1334L83.0095 68.6739C83.0229 68.759 83.0355 68.8495 83.0474 68.9453C83.0593 69.0411 83.0677 69.1409 83.0725 69.2446C83.1018 69.1409 83.1311 69.0404 83.1604 68.9432C83.1897 68.846 83.2206 68.7562 83.2532 68.6739L84.6235 65.1336C84.6526 65.0657 84.7019 65.0084 84.7645 64.9692C84.8332 64.9219 84.9149 64.8968 84.9983 64.8974H85.8173L83.457 70.6695H82.517L81.867 66.6702C81.859 66.6197 81.8503 66.5645 81.8409 66.5047C81.8315 66.4449 81.8242 66.3818 81.819 66.3153C81.7977 66.3818 81.7758 66.4449 81.7532 66.5047C81.7307 66.5645 81.7087 66.6197 81.6874 66.6702L80.0532 70.6695H79.1184L78.1756 64.8981ZM89.2218 70.6695H88.1791L88.8862 64.8981H89.9289L89.2218 70.6695ZM97.2588 64.8981L97.1509 65.7483H95.5698L94.9635 70.6695H93.9319L94.5351 65.7483H92.9491L93.053 64.8981H97.2588ZM104.067 70.6695H103.024L103.336 68.1339H100.907L100.596 70.6695H99.5528L100.264 64.8981H101.307L100.995 67.4007H103.428L103.74 64.8981H104.782L104.067 70.6695ZM114.466 68.3626C114.49 68.4317 114.511 68.5022 114.53 68.5739C114.549 68.6456 114.567 68.7187 114.586 68.7934C114.617 68.7189 114.652 68.6457 114.69 68.5739C114.728 68.502 114.768 68.4316 114.81 68.3626L116.815 65.0657C116.835 65.031 116.86 64.9993 116.889 64.9718C116.912 64.9504 116.939 64.9335 116.969 64.9218C116.999 64.9107 117.031 64.904 117.063 64.9019C117.098 64.8992 117.137 64.8979 117.183 64.8979H117.97L117.259 70.6695H116.349L116.812 66.9097C116.82 66.8405 116.832 66.7647 116.848 66.6822C116.864 66.5997 116.881 66.5159 116.9 66.4308L114.914 69.7276C114.873 69.7976 114.814 69.8554 114.744 69.8952C114.676 69.9325 114.6 69.9517 114.522 69.9511H114.378C114.304 69.9528 114.232 69.9334 114.168 69.8952C114.107 69.8561 114.061 69.7968 114.038 69.7276L112.848 66.4434C112.846 66.5259 112.842 66.6058 112.838 66.6829C112.834 66.7601 112.828 66.8305 112.82 66.8942L112.365 70.6695H111.45L112.161 64.8981H112.941C112.986 64.8981 113.026 64.8994 113.061 64.9021C113.092 64.9041 113.123 64.9108 113.153 64.9221C113.179 64.9327 113.203 64.9499 113.221 64.9721C113.243 65.0006 113.26 65.0322 113.273 65.066L114.466 68.3626ZM124.777 64.8981L124.673 65.7243H122.348L122.149 67.3647H123.974L123.874 68.159H122.049L121.841 69.8433H124.174L124.07 70.6695H120.698L121.409 64.8981H124.777Z" fill="black"/>
</svg>
