<svg width="147" height="49" viewBox="0 0 147 49" fill="none" xmlns="http://www.w3.org/2000/svg">
<path d="M39.7279 19.0319C39.7279 17.7714 39.3542 16.5393 38.6539 15.4912C37.9536 14.4432 36.9582 13.6264 35.7937 13.144C34.6292 12.6617 33.3478 12.5355 32.1116 12.7814C30.8754 13.0273 29.7398 13.6343 28.8485 14.5255C27.9573 15.4168 27.3503 16.5524 27.1044 17.7886C26.8585 19.0248 26.9847 20.3062 27.467 21.4707C27.9494 22.6353 28.7662 23.6306 29.8142 24.3309C30.8623 25.0312 32.0944 25.4049 33.3549 25.4049C35.0451 25.4049 36.6661 24.7335 37.8613 23.5383C39.0565 22.3431 39.7279 20.7221 39.7279 19.0319Z" fill="black"/>
<path d="M28.7391 25.885C29.86 26.1718 30.8676 26.7918 31.6287 27.6633C32.3898 28.5348 32.8687 29.6167 33.0019 30.766C33.1352 31.9154 32.9166 33.0781 32.3751 34.1006C31.8336 35.1232 30.9947 35.9574 29.9691 36.493L8.39706 47.845C7.38503 48.3783 6.23645 48.5964 5.09938 48.471C3.9623 48.3456 2.88883 47.8826 2.0173 47.1416C1.14577 46.4006 0.516129 45.4155 0.209528 44.3134C-0.0970728 43.2113 -0.0665946 42.0426 0.297053 40.958V4.6C0.297053 3.38 0.781706 2.20997 1.64437 1.34731C2.50704 0.484638 3.67706 0 4.89706 0C6.11705 0 7.28708 0.484638 8.14974 1.34731C9.01241 2.20997 9.49706 3.38 9.49706 4.6V34.3L20.3271 28.6L11.3941 19.665C10.7969 18.892 10.5019 17.9279 10.5643 16.9531C10.6267 15.9783 11.0422 15.0597 11.7331 14.3692C12.424 13.6787 13.3428 13.2637 14.3176 13.2018C15.2925 13.1399 16.2564 13.4354 17.0291 14.033L28.2921 25.3C28.4649 25.4743 28.6166 25.6683 28.7441 25.878L28.7391 25.885Z" fill="black"/>
<path d="M26.9941 19.0319C26.9941 17.7714 27.3679 16.5393 28.0682 15.4912C28.7685 14.4432 29.7638 13.6264 30.9283 13.144C32.0928 12.6617 33.3742 12.5355 34.6105 12.7814C35.8467 13.0273 36.9823 13.6343 37.8735 14.5255C38.7648 15.4168 39.3718 16.5524 39.6177 17.7886C39.8636 19.0248 39.7374 20.3062 39.2551 21.4707C38.7727 22.6353 37.9558 23.6306 36.9078 24.3309C35.8597 25.0312 34.6276 25.4049 33.3671 25.4049C31.6769 25.4049 30.0559 24.7335 28.8608 23.5383C27.6656 22.3431 26.9941 20.7221 26.9941 19.0319Z" fill="black"/>
<path d="M37.9821 25.885C36.8611 26.1718 35.8535 26.7918 35.0924 27.6633C34.3313 28.5348 33.8525 29.6167 33.7192 30.766C33.5859 31.9154 33.8045 33.0781 34.346 34.1006C34.8875 35.1232 35.7265 35.9574 36.7521 36.493L58.3241 47.845C59.3361 48.3783 60.4847 48.5964 61.6218 48.471C62.7588 48.3456 63.8323 47.8826 64.7038 47.1416C65.5754 46.4006 66.205 45.4155 66.5116 44.3134C66.8182 43.2113 66.7877 42.0426 66.4241 40.958V4.6C66.4241 3.38 65.9394 2.20997 65.0768 1.34731C64.2141 0.484638 63.0441 0 61.8241 0C60.6041 0 59.4341 0.484638 58.5714 1.34731C57.7087 2.20997 57.2241 3.38 57.2241 4.6V34.3L46.3941 28.6L55.3271 19.666C55.9242 18.893 56.2192 17.9289 56.1568 16.9541C56.0944 15.9793 55.6789 15.0607 54.988 14.3702C54.2972 13.6797 53.3783 13.2647 52.4035 13.2028C51.4287 13.1409 50.4647 13.4364 49.6921 14.034L38.4291 25.301C38.2563 25.4753 38.1046 25.6693 37.9771 25.879L37.9821 25.885Z" fill="black"/>
<path d="M77.6542 18.505L74.0747 5.4141H75.6855L78.4213 16.076H78.5491L81.336 5.4141H83.1258L85.9128 16.076H86.0406L88.7764 5.4141H90.3872L86.8076 18.505H85.1713L82.2821 8.07319H82.1798L79.2906 18.505H77.6542ZM95.2324 18.7096C94.346 18.7096 93.5683 18.4986 92.8993 18.0767C92.2345 17.6549 91.7146 17.0647 91.3396 16.3061C90.9689 15.5476 90.7835 14.6613 90.7835 13.6471C90.7835 12.6243 90.9689 11.7316 91.3396 10.9688C91.7146 10.206 92.2345 9.61367 92.8993 9.19179C93.5683 8.76992 94.346 8.55898 95.2324 8.55898C96.1187 8.55898 96.8943 8.76992 97.5591 9.19179C98.2281 9.61367 98.748 10.206 99.1187 10.9688C99.4937 11.7316 99.6812 12.6243 99.6812 13.6471C99.6812 14.6613 99.4937 15.5476 99.1187 16.3061C98.748 17.0647 98.2281 17.6549 97.5591 18.0767C96.8943 18.4986 96.1187 18.7096 95.2324 18.7096ZM95.2324 17.3544C95.9057 17.3544 96.4596 17.1819 96.8943 16.8367C97.3289 16.4915 97.6507 16.0377 97.8595 15.4752C98.0683 14.9127 98.1727 14.3033 98.1727 13.6471C98.1727 12.9908 98.0683 12.3793 97.8595 11.8125C97.6507 11.2458 97.3289 10.7877 96.8943 10.4382C96.4596 10.0888 95.9057 9.9141 95.2324 9.9141C94.5591 9.9141 94.0051 10.0888 93.5704 10.4382C93.1358 10.7877 92.814 11.2458 92.6052 11.8125C92.3964 12.3793 92.292 12.9908 92.292 13.6471C92.292 14.3033 92.3964 14.9127 92.6052 15.4752C92.814 16.0377 93.1358 16.4915 93.5704 16.8367C94.0051 17.1819 94.5591 17.3544 95.2324 17.3544ZM101.984 18.505V8.68682H103.441V10.1698H103.544C103.723 9.68398 104.046 9.28981 104.515 8.98725C104.984 8.68469 105.512 8.53341 106.1 8.53341C106.211 8.53341 106.35 8.53554 106.516 8.53981C106.682 8.54407 106.808 8.55046 106.893 8.55898V10.0931C106.842 10.0803 106.725 10.0611 106.541 10.0355C106.363 10.0057 106.173 9.9908 105.973 9.9908C105.495 9.9908 105.069 10.0909 104.694 10.2912C104.323 10.4872 104.029 10.76 103.812 11.1094C103.599 11.4546 103.492 11.8488 103.492 12.2919V18.505H101.984ZM110.087 14.9255L110.062 13.059H110.369L114.664 8.68682H116.531L111.954 13.3147H111.826L110.087 14.9255ZM108.681 18.505V5.4141H110.19V18.505H108.681ZM114.92 18.505L111.085 13.6471L112.158 12.5988L116.837 18.505H114.92ZM122.057 18.7096C121.17 18.7096 120.393 18.4986 119.723 18.0767C119.059 17.6549 118.539 17.0647 118.164 16.3061C117.793 15.5476 117.608 14.6613 117.608 13.6471C117.608 12.6243 117.793 11.7316 118.164 10.9688C118.539 10.206 119.059 9.61367 119.723 9.19179C120.393 8.76992 121.17 8.55898 122.057 8.55898C122.943 8.55898 123.719 8.76992 124.383 9.19179C125.052 9.61367 125.572 10.206 125.943 10.9688C126.318 11.7316 126.505 12.6243 126.505 13.6471C126.505 14.6613 126.318 15.5476 125.943 16.3061C125.572 17.0647 125.052 17.6549 124.383 18.0767C123.719 18.4986 122.943 18.7096 122.057 18.7096ZM122.057 17.3544C122.73 17.3544 123.284 17.1819 123.719 16.8367C124.153 16.4915 124.475 16.0377 124.684 15.4752C124.893 14.9127 124.997 14.3033 124.997 13.6471C124.997 12.9908 124.893 12.3793 124.684 11.8125C124.475 11.2458 124.153 10.7877 123.719 10.4382C123.284 10.0888 122.73 9.9141 122.057 9.9141C121.383 9.9141 120.829 10.0888 120.395 10.4382C119.96 10.7877 119.638 11.2458 119.429 11.8125C119.221 12.3793 119.116 12.9908 119.116 13.6471C119.116 14.3033 119.221 14.9127 119.429 15.4752C119.638 16.0377 119.96 16.4915 120.395 16.8367C120.829 17.1819 121.383 17.3544 122.057 17.3544ZM134.996 14.4908V8.68682H136.504V18.505H134.996V16.8431H134.893C134.663 17.3417 134.305 17.7657 133.82 18.1151C133.334 18.4603 132.72 18.6328 131.979 18.6328C131.365 18.6328 130.82 18.4986 130.342 18.2301C129.865 17.9574 129.49 17.5483 129.217 17.0029C128.945 16.4532 128.808 15.7607 128.808 14.9255V8.68682H130.317V14.8232C130.317 15.5391 130.517 16.1101 130.918 16.5363C131.322 16.9624 131.838 17.1755 132.464 17.1755C132.839 17.1755 133.221 17.0796 133.609 16.8878C134.001 16.6961 134.329 16.402 134.593 16.0057C134.861 15.6094 134.996 15.1044 134.996 14.4908ZM143.537 8.68682V9.96523H138.449V8.68682H143.537ZM139.932 6.33455H141.44V15.6925C141.44 16.1186 141.502 16.4382 141.626 16.6513C141.754 16.8601 141.916 17.0007 142.112 17.0732C142.312 17.1414 142.523 17.1755 142.744 17.1755C142.911 17.1755 143.047 17.1669 143.154 17.1499C143.26 17.1286 143.345 17.1115 143.409 17.0988L143.716 18.4539C143.614 18.4922 143.471 18.5306 143.288 18.5689C143.105 18.6115 142.872 18.6328 142.591 18.6328C142.165 18.6328 141.747 18.5412 141.338 18.358C140.933 18.1747 140.597 17.8956 140.328 17.5206C140.064 17.1456 139.932 16.6726 139.932 16.1016V6.33455Z" fill="#E79215"/>
<path d="M77.4581 41.505L74.4667 31.6868H76.0519L78.1741 39.2039H78.2763L80.3729 31.6868H81.9837L84.0547 39.1783H84.157L86.2792 31.6868H87.8644L84.8729 41.505H83.39L81.2422 33.9624H81.0888L78.9411 41.505H77.4581ZM89.8587 41.505V31.6868H91.3672V41.505H89.8587ZM90.6258 30.0505C90.3317 30.0505 90.0782 29.9503 89.8651 29.75C89.6563 29.5497 89.5519 29.309 89.5519 29.0277C89.5519 28.7465 89.6563 28.5057 89.8651 28.3054C90.0782 28.1051 90.3317 28.005 90.6258 28.005C90.9198 28.005 91.1712 28.1051 91.38 28.3054C91.5931 28.5057 91.6996 28.7465 91.6996 29.0277C91.6996 29.309 91.5931 29.5497 91.38 29.75C91.1712 29.9503 90.9198 30.0505 90.6258 30.0505ZM98.4001 31.6868V32.9652H93.312V31.6868H98.4001ZM94.795 29.3346H96.3035V38.6925C96.3035 39.1186 96.3653 39.4382 96.4889 39.6513C96.6167 39.8601 96.7786 40.0007 96.9747 40.0732C97.1749 40.1414 97.3859 40.1755 97.6075 40.1755C97.7737 40.1755 97.91 40.1669 98.0166 40.1499C98.1231 40.1286 98.2083 40.1115 98.2722 40.0988L98.5791 41.4539C98.4768 41.4922 98.334 41.5306 98.1508 41.5689C97.9676 41.6115 97.7353 41.6328 97.4541 41.6328C97.0279 41.6328 96.6103 41.5412 96.2012 41.358C95.7964 41.1747 95.4597 40.8956 95.1913 40.5206C94.9271 40.1456 94.795 39.6726 94.795 39.1016V29.3346ZM102.389 35.5988V41.505H100.88V28.4141H102.389V33.2209H102.517C102.747 32.7138 103.092 32.3111 103.552 32.0128C104.017 31.7103 104.634 31.559 105.406 31.559C106.075 31.559 106.661 31.6932 107.164 31.9617C107.666 32.2259 108.056 32.6328 108.333 33.1826C108.615 33.728 108.755 34.4226 108.755 35.2664V41.505H107.247V35.3686C107.247 34.5888 107.044 33.9858 106.639 33.5597C106.239 33.1293 105.683 32.9141 104.971 32.9141C104.477 32.9141 104.034 33.0185 103.642 33.2273C103.254 33.4361 102.947 33.7408 102.721 34.1414C102.5 34.5419 102.389 35.0277 102.389 35.5988ZM116.577 41.505V31.6868H118.035V33.2209H118.163C118.367 32.6968 118.697 32.2898 119.153 32C119.609 31.706 120.157 31.559 120.796 31.559C121.444 31.559 121.983 31.706 122.413 32C122.848 32.2898 123.187 32.6968 123.43 33.2209H123.532C123.783 32.7138 124.161 32.3111 124.663 32.0128C125.166 31.7103 125.769 31.559 126.472 31.559C127.35 31.559 128.068 31.8338 128.626 32.3836C129.185 32.929 129.464 33.7792 129.464 34.934V41.505H127.955V34.934C127.955 34.2095 127.757 33.6918 127.361 33.3807C126.965 33.0696 126.498 32.9141 125.961 32.9141C125.271 32.9141 124.736 33.1229 124.357 33.5405C123.977 33.9539 123.788 34.478 123.788 35.113V41.505H122.254V34.7806C122.254 34.2223 122.072 33.7728 121.71 33.4319C121.348 33.0867 120.881 32.9141 120.31 32.9141C119.918 32.9141 119.552 33.0185 119.211 33.2273C118.874 33.4361 118.602 33.7259 118.393 34.0966C118.188 34.4631 118.086 34.8871 118.086 35.3686V41.505H116.577ZM136.338 41.7096C135.392 41.7096 134.576 41.5007 133.89 41.0831C133.208 40.6613 132.682 40.0732 132.311 39.3189C131.945 38.5604 131.762 37.6783 131.762 36.6726C131.762 35.6669 131.945 34.7806 132.311 34.0135C132.682 33.2422 133.198 32.6414 133.858 32.211C134.523 31.7763 135.299 31.559 136.185 31.559C136.696 31.559 137.201 31.6442 137.7 31.8147C138.199 31.9851 138.652 32.2621 139.061 32.6456C139.471 33.0249 139.797 33.5277 140.039 34.1542C140.282 34.7806 140.404 35.5519 140.404 36.4681V37.1073H132.836V35.8033H138.87C138.87 35.2493 138.759 34.755 138.537 34.3203C138.32 33.8857 138.009 33.5426 137.604 33.2912C137.204 33.0398 136.731 32.9141 136.185 32.9141C135.584 32.9141 135.064 33.0632 134.625 33.3615C134.191 33.6556 133.856 34.0391 133.622 34.5121C133.387 34.9851 133.27 35.4922 133.27 36.0334V36.9027C133.27 37.6442 133.398 38.2728 133.654 38.7884C133.914 39.2997 134.274 39.6897 134.734 39.9581C135.194 40.2223 135.729 40.3544 136.338 40.3544C136.735 40.3544 137.093 40.299 137.412 40.1882C137.736 40.0732 138.015 39.9027 138.25 39.6769C138.484 39.4468 138.665 39.1613 138.793 38.8203L140.25 39.2294C140.097 39.7238 139.839 40.1584 139.477 40.5334C139.115 40.9042 138.667 41.1939 138.135 41.4027C137.602 41.6073 137.003 41.7096 136.338 41.7096ZM144.693 28.4141L144.565 37.8232H143.082L142.954 28.4141H144.693ZM143.824 41.6073C143.508 41.6073 143.238 41.4944 143.012 41.2685C142.786 41.0426 142.673 40.7721 142.673 40.4567C142.673 40.1414 142.786 39.8708 143.012 39.6449C143.238 39.4191 143.508 39.3061 143.824 39.3061C144.139 39.3061 144.409 39.4191 144.635 39.6449C144.861 39.8708 144.974 40.1414 144.974 40.4567C144.974 40.6655 144.921 40.8573 144.814 41.032C144.712 41.2067 144.574 41.3473 144.399 41.4539C144.228 41.5561 144.037 41.6073 143.824 41.6073Z" fill="#E79215"/>
</svg>
