<svg width="283" height="275" viewBox="0 0 283 275" fill="none" xmlns="http://www.w3.org/2000/svg">
<path d="M211.973 157.508H84.6418C83.0168 157.508 81.6992 156.19 81.6992 154.565V84.9055C81.6992 83.2805 83.0168 81.963 84.6418 81.963H211.973C213.598 81.963 214.916 83.2805 214.916 84.9055V154.565C214.916 156.19 213.598 157.508 211.973 157.508Z" fill="#454545"/>
<path d="M213.162 86.3157H83.4526V151.219H213.162V86.3157Z" fill="#BFBFBF"/>
<path d="M103.446 109.141C103.446 109.141 102.017 107.647 100.101 108.107C98.1867 108.566 97.5996 110.931 97.9891 112.512C98.3779 114.094 99.5863 115.371 102.052 115.409C104.518 115.448 104.304 114.209 104.304 114.209C104.304 114.209 104.64 115.282 104.133 115.882C104.133 115.882 105.051 115.524 104.848 114.643C104.848 114.643 105.297 114.988 105.246 115.371C105.246 115.371 105.757 114.22 104.608 113.296C103.459 112.371 103.446 109.141 103.446 109.141Z" fill="#171659"/>
<path d="M127.522 123.812C127.345 122.422 127.126 121.26 126.949 120.458C126.777 119.656 126.676 118.844 126.642 118.028C126.642 118 126.642 117.969 126.64 117.943C126.525 115.24 124.3 113.124 121.598 113.085C120.881 113.075 120.208 113.045 119.691 112.983C119.691 112.983 119.423 112.936 118.958 112.835L117.382 118.628C117.668 118.637 117.969 118.657 118.295 118.684L116.496 122.793L116.241 123.375L120.588 125.955C120.854 125.479 121.12 125.006 121.373 124.553C121.694 123.982 121.996 123.445 122.26 122.97L122.564 124.579L122.808 125.871L127.61 124.562C127.583 124.306 127.553 124.054 127.522 123.812Z" fill="#F4CC4D"/>
<path d="M117.767 112.547L116.072 118.647C113.309 118.834 112.871 119.965 110.888 119.643C110.564 119.591 110.288 119.515 110.049 119.416L109.893 120.375L108.955 120.252L105.585 119.811C105.594 118.981 105.609 118.191 105.625 117.459C105.631 117.281 105.634 117.109 105.637 116.935C105.646 116.571 105.658 116.218 105.667 115.89C105.67 115.755 105.677 115.623 105.68 115.498C105.682 115.394 105.686 115.289 105.689 115.188C105.692 115.06 105.698 114.934 105.701 114.812C108.315 113.699 106.681 111.463 106.136 110.822C106.145 110.77 106.158 110.718 106.17 110.663C106.2 110.531 106.231 110.397 106.262 110.259L106.265 110.247L106.847 106.417L107.18 106.497L111.02 107.391L111.675 107.545V110.109C111.742 110.176 111.813 110.244 111.89 110.305C112.043 110.428 112.212 110.541 112.396 110.627C112.598 110.725 112.8 110.814 113.002 110.9H113.005C114.795 111.689 116.52 112.219 117.767 112.547Z" fill="white"/>
<path d="M131.922 147.04H126.407C126.407 147.04 126.343 146.449 127.026 146.075C127.296 145.928 127.333 145.845 127.875 145.808L129.404 144.04L128.019 141.069L124.766 134.089C124.312 133.127 123.984 132.11 123.788 131.056L122.808 125.872L127.613 124.561C127.778 126.065 127.879 127.784 127.814 129.577C127.774 130.802 128.06 132.013 128.703 133.051C129.383 134.145 130.235 135.784 130.716 137.708C130.854 138.266 130.986 138.827 131.112 139.387C131.639 141.719 132.083 143.986 132.8 145.726C133.055 146.354 132.599 147.04 131.922 147.04Z" fill="#FFCFC0"/>
<path d="M105.702 114.812C105.705 114.72 105.708 114.631 105.711 114.542C105.714 114.468 105.718 114.398 105.72 114.331L103.71 113.58L104.553 111.463L105.98 111.564C106.004 111.432 106.032 111.301 106.063 111.16C106.084 111.053 106.109 110.945 106.133 110.832C106.133 110.829 106.133 110.825 106.136 110.823C106.682 111.463 108.315 113.699 105.702 114.812Z" fill="#FFCFC0"/>
<path d="M127.617 146.28L126.726 145.969C126.265 145.808 125.771 146.103 125.691 146.585L125.617 147.041H127.617V146.28Z" fill="#FFCFC0"/>
<path d="M126.405 147.04C126.405 147.04 126.341 146.449 127.027 146.074" stroke="#FF8E77" stroke-width="0.5" stroke-miterlimit="10" stroke-linecap="round" stroke-linejoin="round"/>
<path d="M128.496 147.04C128.496 147.04 128.285 146.343 128.961 146.259" stroke="#FF8E77" stroke-width="0.5" stroke-miterlimit="10" stroke-linecap="round" stroke-linejoin="round"/>
<path d="M127.757 147.04C127.757 147.04 127.652 146.29 128.465 146.074" stroke="#FF8E77" stroke-width="0.5" stroke-miterlimit="10" stroke-linecap="round" stroke-linejoin="round"/>
<path d="M127.028 147.04C127.028 147.04 126.948 146.48 127.617 146.074" stroke="#FF8E77" stroke-width="0.5" stroke-miterlimit="10" stroke-linecap="round" stroke-linejoin="round"/>
<path d="M117.767 112.546L116.072 118.645C116.459 118.619 116.892 118.61 117.381 118.627L118.957 112.834C118.644 112.765 118.239 112.669 117.767 112.546Z" fill="#FFCFC0"/>
<path d="M105.392 111.506C105.141 112.076 104.786 112.691 104.304 113.169C104.222 113.353 104.124 113.528 104.011 113.693C103.404 114.563 102.399 115.136 101.256 115.136C99.4087 115.136 97.9106 113.638 97.9106 111.79C97.9106 111.034 98.1617 110.342 98.5819 109.781C98.6247 109.726 98.6675 109.67 98.7167 109.618C99.3267 108.899 100.236 108.442 101.257 108.442C101.297 108.442 101.337 108.445 101.377 108.448V108.446C101.42 108.448 101.46 108.452 101.502 108.455C101.539 108.458 101.576 108.458 101.613 108.461C102.6 108.523 103.363 108.602 103.966 108.731C105.205 108.993 105.904 110.345 105.392 111.506Z" fill="#FFCFC0"/>
<path d="M102.358 109.08C102.358 109.159 102.229 109.224 102.07 109.224C101.911 109.224 101.782 109.16 101.782 109.08C101.782 109 101.911 108.936 102.07 108.936C102.229 108.936 102.358 109.001 102.358 109.08Z" fill="#171659"/>
<path d="M101.764 110.943C101.923 110.943 102.052 110.879 102.052 110.8C102.052 110.72 101.923 110.656 101.764 110.656C101.605 110.656 101.476 110.72 101.476 110.8C101.476 110.879 101.605 110.943 101.764 110.943Z" fill="#171659"/>
<path d="M100.809 109.322C100.809 109.322 100.666 108.846 100.959 108.54" stroke="#171659" stroke-width="0.5" stroke-miterlimit="10" stroke-linecap="round" stroke-linejoin="round"/>
<path d="M108.955 120.253C108.566 122.842 108.091 126.139 108.002 126.733L105.561 126.546C105.545 124.156 105.558 121.852 105.585 119.812L108.955 120.253Z" fill="#FFCFC0"/>
<path d="M105.794 136.694C105.794 136.694 105.777 138.744 106.629 141.416C106.74 141.775 107.266 141.73 107.311 141.355C107.356 141.006 107.391 140.555 107.422 139.966C107.488 138.716 107.514 137.565 107.438 134.812C107.438 134.812 108.224 127.675 107.99 126.83C107.99 126.83 107.995 126.794 108.005 126.733L105.561 126.545C105.581 129.911 105.65 133.453 105.794 136.694Z" fill="#FFCFC0"/>
<path d="M110.947 93.1164C111.26 96.6089 111.29 100.111 111.217 103.018C111.174 104.719 111.097 106.217 111.021 107.391L107.181 106.496C107.328 105.895 107.485 105.249 107.653 104.547C107.781 103.999 107.898 103.419 108.002 102.822C108.744 98.5357 108.863 93.3946 108.863 93.3946C108.849 92.9045 108.269 92.7632 108.202 91.5377C108.131 90.3093 108.256 89.2978 108.652 89.3256C108.976 89.3534 109.013 90.355 109.016 90.7045C109.078 90.4042 109.135 89.8192 109.083 88.6914C109.074 88.4496 109.277 88.2506 109.521 88.2713L109.613 88.2805L110.597 88.3726C110.68 88.3818 110.756 88.4032 110.827 88.4339C111.093 88.553 111.277 88.817 111.277 89.1201C111.277 90.1388 111.238 92.0385 110.947 93.1164Z" fill="#FFCFC0"/>
<path d="M120.589 125.955C119.489 127.919 118.362 129.935 117.875 130.82C116.777 132.808 116.9 133.65 115.932 135.422C115.409 136.38 114.035 138.764 112.884 140.756C112.326 141.721 111.818 142.594 111.484 143.17C111.226 143.611 111.18 144.15 111.364 144.632L111.701 145.529C111.977 146.258 111.438 147.039 110.656 147.039H102.923C102.659 147.039 102.43 146.84 102.417 146.58C102.389 146.102 102.776 145.725 103.219 145.725C103.296 145.725 103.373 145.735 103.449 145.759L104.019 145.927L107.472 144.307C108.066 144.028 108.52 143.519 108.728 142.897L109.892 139.426L112.129 132.762L116.24 123.374L120.589 125.955Z" fill="#FFCFC0"/>
<path d="M101.736 109.863L102.777 109.959L103.238 109.329C103.318 109.22 103.487 109.24 103.539 109.366L103.881 110.189" fill="#FFCFC0"/>
<path d="M101.736 109.863L102.777 109.959L103.238 109.329C103.318 109.22 103.487 109.24 103.539 109.366L103.881 110.189" stroke="#FF8E77" stroke-width="0.5" stroke-miterlimit="10" stroke-linecap="round" stroke-linejoin="round"/>
<path d="M100.867 110.188C100.867 110.188 100.636 110.588 100.774 110.944" stroke="#171659" stroke-width="0.5" stroke-miterlimit="10" stroke-linecap="round" stroke-linejoin="round"/>
<path d="M103.961 111.334C103.82 111.315 103.71 111.279 103.71 111.279L104.188 110.369L104.283 110.188C104.899 111.31 104.326 111.38 103.961 111.334Z" fill="#FF8E77"/>
<path d="M103.961 111.334C103.82 111.315 103.71 111.279 103.71 111.279L104.188 110.369C104.338 110.522 104.538 110.872 103.961 111.334Z" fill="white"/>
<path d="M104.132 113.738C103.526 114.608 102.422 115.192 101.279 115.192C99.4315 115.192 97.9099 113.638 97.9099 111.79C97.9099 111.034 98.0982 110.34 98.5184 109.78C98.5612 109.725 98.5712 109.615 98.6204 109.563C99.3987 109.759 101.035 110.452 101.219 112.446C101.219 112.446 102.368 112.044 102.76 113.295C102.76 113.295 103.596 113.538 104.132 113.738Z" fill="#171659"/>
<path d="M102.478 112.445C102.478 112.445 100.846 112.55 101.39 113.65C101.9 114.68 104.104 113.943 103.543 112.941" fill="#FFCFC0"/>
<path d="M101.891 113.46C101.891 113.46 101.39 113.059 102.234 112.829C102.878 112.654 103.035 113.184 103.035 113.184" stroke="#FF8E77" stroke-width="0.5" stroke-miterlimit="10" stroke-linecap="round" stroke-linejoin="round"/>
<path d="M102.443 112.795C102.443 112.795 102.007 113.376 102.761 113.54L102.443 112.795Z" fill="#FFCFC0"/>
<path d="M102.443 112.795C102.443 112.795 102.007 113.376 102.761 113.54" stroke="#FF8E77" stroke-width="0.5" stroke-miterlimit="10" stroke-linecap="round" stroke-linejoin="round"/>
<path d="M105.392 111.506C105.141 112.076 104.786 112.691 104.304 113.169" stroke="#FF8E77" stroke-width="0.5" stroke-miterlimit="10" stroke-linecap="round" stroke-linejoin="round"/>
<path d="M122.26 122.97L121.574 118.997" stroke="#171659" stroke-width="0.5" stroke-miterlimit="10" stroke-linecap="round" stroke-linejoin="round"/>
<path d="M109.032 90.6182V91.039C109.032 91.039 110.122 91.288 110.41 91.6903" stroke="#FF8E77" stroke-width="0.5" stroke-miterlimit="10" stroke-linecap="round" stroke-linejoin="round"/>
<path d="M109.521 88.2741C109.521 88.2741 109.637 89.8428 109.521 90.5804" stroke="#FF8E77" stroke-width="0.5" stroke-miterlimit="10" stroke-linecap="round" stroke-linejoin="round"/>
<path d="M110.038 88.3226C110.038 88.3226 110.26 89.7657 110.038 90.7616" stroke="#FF8E77" stroke-width="0.5" stroke-miterlimit="10" stroke-linecap="round" stroke-linejoin="round"/>
<path d="M110.68 88.3875C110.68 88.3875 110.853 89.8042 110.68 90.9727" stroke="#FF8E77" stroke-width="0.5" stroke-miterlimit="10" stroke-linecap="round" stroke-linejoin="round"/>
<path d="M107.422 139.966C106.855 139.936 106.611 137.606 106.611 137.606" stroke="#FF8E77" stroke-width="0.5" stroke-miterlimit="10" stroke-linecap="round" stroke-linejoin="round"/>
<path d="M106.893 116.852C107.8 116.967 108.517 118.253 109.162 118.894C109.574 119.304 110.049 119.417 110.049 119.417" stroke="#171659" stroke-width="0.5" stroke-miterlimit="10" stroke-linecap="round" stroke-linejoin="round"/>
<path d="M124.648 125.37L124.853 125.314C125.308 125.189 125.581 124.726 125.471 124.269L125.071 122.86" stroke="#171659" stroke-width="0.5" stroke-miterlimit="10" stroke-linecap="round" stroke-linejoin="round"/>
<path d="M124.648 122.97L125.495 122.75" stroke="#171659" stroke-width="0.5" stroke-miterlimit="10" stroke-linecap="round" stroke-linejoin="round"/>
<path d="M118.727 123.068L119.493 123.477" stroke="#171659" stroke-width="0.5" stroke-miterlimit="10" stroke-linecap="round" stroke-linejoin="round"/>
<path d="M117.655 124.18C118.064 124.44 118.608 124.287 118.823 123.853L119.11 123.273" stroke="#171659" stroke-width="0.5" stroke-miterlimit="10" stroke-linecap="round" stroke-linejoin="round"/>
<path d="M119.493 113.396L118.268 118.308" stroke="#171659" stroke-width="0.5" stroke-miterlimit="10" stroke-linecap="round" stroke-linejoin="round"/>
<path d="M201.131 274.692H3.90649L33.6283 256.927H171.41L201.131 274.692Z" fill="#FF9B21"/>
<path d="M137.914 263.2C135.447 257.195 133.911 249.388 132.093 241.342L121.435 247.141L126.213 257.386L120.944 263.485C119.066 263.607 118.944 263.892 118.017 264.404C115.658 265.696 115.878 267.729 115.878 267.729H134.889C137.231 267.729 138.801 265.362 137.914 263.2Z" fill="#FFCFC0"/>
<path d="M132.092 241.343L121.432 247.141L110.219 223.089C108.658 219.763 107.527 216.258 106.845 212.632L102.632 190.296L101.584 184.75C100.673 186.384 99.6321 188.238 98.5264 190.206C94.0458 198.207 88.5573 208.021 86.46 211.818C82.6792 218.665 83.1101 221.575 79.768 227.683C77.9633 230.984 73.2309 239.196 69.2546 246.067L58.9524 241.481L66.6609 218.51L81.7119 184.139L87.916 169.975C86.7938 169.877 85.7531 169.812 84.7694 169.78L90.2008 149.809C91.803 150.159 92.7297 150.322 92.7297 150.322C94.5102 150.533 96.8279 150.638 99.2996 150.671C108.618 150.809 116.286 158.103 116.684 167.421C116.692 167.51 116.692 167.617 116.692 167.714C116.806 170.527 117.156 173.324 117.749 176.089C118.359 178.853 119.115 182.863 119.725 187.652C120.465 193.409 120.986 200.296 120.733 207.525C120.587 211.745 121.571 215.924 123.79 219.502C126.14 223.275 129.076 228.926 130.726 235.553C131.206 237.481 131.662 239.416 132.092 241.343Z" fill="#5E3800"/>
<path d="M40.543 145.078L37.6318 152.379L44.5599 154.965C44.5599 154.965 44.617 149.704 45.4623 145.428L40.543 145.078Z" fill="#FFCFC0"/>
<path d="M50.4328 243.346C48.4761 243.241 47.6372 235.208 47.6372 235.208" stroke="#FF8E77" stroke-width="0.5" stroke-miterlimit="10" stroke-linecap="round" stroke-linejoin="round"/>
<path d="M86.0963 148.816L80.2539 169.842C81.59 169.75 83.0816 169.722 84.7694 169.78L90.2023 149.809C89.1187 149.57 87.7234 149.241 86.0963 148.816Z" fill="#FFCFC0"/>
<path d="M40.7176 146.209C40.7176 148.655 39.9607 150.904 38.6674 152.768C36.5823 155.773 33.1111 157.742 29.1734 157.742C22.801 157.742 17.6406 152.581 17.6406 146.209C17.6406 143.6 18.5024 141.211 19.959 139.278C22.0556 136.482 25.3991 134.665 29.1734 134.665C35.5451 134.665 40.7176 139.837 40.7176 146.209Z" fill="#FFCFC0"/>
<path d="M29.583 134.68C33.3952 134.903 36.2657 135.181 38.512 135.658C42.7886 136.566 45.2026 141.227 43.4378 145.227C42.5682 147.197 41.3483 149.314 39.6834 150.968L29.583 134.68Z" fill="#FFCFC0"/>
<path d="M42.5839 154.226C42.5839 154.226 40.7791 154.38 38.6647 156.616C36.5504 158.852 27.4437 159.519 22.3782 155.901H22.3703C19.2316 153.786 17.3612 150.233 17.394 146.2C17.4182 143.607 19.7844 139.338 21.1747 137.362C22.0044 137.492 23.2563 138.354 24.4926 140.053C26.5256 139.63 32.5913 138.817 35.0873 143.558C35.0873 143.558 40.7549 147.063 42.3157 151.397H40.1449L42.5839 154.226Z" fill="#171659"/>
<path d="M34.6892 141.212C34.6892 141.212 29.0623 141.57 30.9391 145.363C32.6961 148.913 40.2933 146.375 38.3594 142.92" fill="#FFCFC0"/>
<path d="M32.6654 144.71C32.6654 144.71 30.9369 143.327 33.8481 142.535C36.0695 141.931 36.6073 143.76 36.6073 143.76" stroke="#FF8E77" stroke-width="0.5" stroke-miterlimit="10" stroke-linecap="round" stroke-linejoin="round"/>
<path d="M34.5679 142.418C34.5679 142.418 33.0656 144.419 35.6615 144.986L34.5679 142.418Z" fill="#FFCFC0"/>
<path d="M34.5679 142.418C34.5679 142.418 33.0656 144.419 35.6615 144.986" stroke="#FF8E77" stroke-width="0.5" stroke-miterlimit="10" stroke-linecap="round" stroke-linejoin="round"/>
<path d="M32.9771 136.867C32.9771 137.141 32.532 137.363 31.9827 137.363C31.4334 137.363 30.9883 137.141 30.9883 136.867C30.9883 136.593 31.4334 136.371 31.9827 136.371C32.532 136.372 32.9771 136.594 32.9771 136.867Z" fill="#171659"/>
<path d="M27.6357 137.699C27.6357 137.699 27.1435 136.062 28.1543 135.006" stroke="#171659" stroke-width="0.5" stroke-miterlimit="10" stroke-linecap="round" stroke-linejoin="round"/>
<path d="M101.588 184.746L109.665 170.333" stroke="white" stroke-width="0.5" stroke-miterlimit="10" stroke-linecap="round" stroke-linejoin="round"/>
<path d="M87.9197 169.973L89.1352 167.096" stroke="white" stroke-width="0.5" stroke-miterlimit="10" stroke-linecap="round" stroke-linejoin="round"/>
<path d="M34.6143 135.072L36.5717 133.576C37.0532 133.207 37.753 133.483 37.8536 134.081L38.1796 136.017" fill="#FFCFC0"/>
<path d="M43.4378 145.227L40.543 145.078" stroke="#FF8E77" stroke-width="0.5" stroke-miterlimit="10" stroke-linecap="round" stroke-linejoin="round"/>
<path d="M39.6706 137.363C39.6706 137.363 39.6028 138.998 38.1797 139.541" stroke="#FF8E77" stroke-width="0.5" stroke-miterlimit="10" stroke-linecap="round" stroke-linejoin="round"/>
<path d="M24.2271 155.418C24.2271 157.659 22.4102 159.477 20.1681 159.477C17.9268 159.477 16.1091 157.66 16.1091 155.418C16.1091 153.176 17.9268 151.359 20.1681 151.359C22.4095 151.359 24.2271 153.176 24.2271 155.418Z" fill="#FF9B21"/>
<path d="M23.5187 157.742C23.5187 160.436 21.3344 162.62 18.6401 162.62C15.9458 162.62 13.7615 160.436 13.7615 157.742C13.7615 155.047 15.9458 152.863 18.6401 152.863C21.3344 152.863 23.5187 155.047 23.5187 157.742Z" fill="#171659"/>
<path d="M69.6769 143.143H69.669C68.9778 142.842 68.2787 142.533 67.5796 142.2C66.9455 141.907 66.3684 141.517 65.8398 141.086C63.6769 139.337 62.4328 136.63 62.6439 133.767C62.9621 129.439 63.3309 123.24 63.5142 115.969L52.4302 115.292C52.0728 117.352 51.674 119.356 51.2281 121.246C50.5048 124.287 49.8378 127.043 49.2201 129.548C48.6672 131.809 48.1629 133.849 47.6992 135.72C47.6828 135.801 47.6585 135.89 47.6343 135.98C47.0408 138.379 46.545 140.469 46.122 142.323C46.0813 142.526 46.0328 142.721 45.9921 142.908C45.903 143.299 45.8216 143.672 45.7482 144.038C45.6426 144.518 45.5449 144.981 45.4635 145.429C44.6182 149.706 44.5612 154.966 44.5612 154.966C44.5533 155.202 44.5447 155.445 44.5369 155.698C44.5041 156.722 44.4634 157.82 44.4313 158.991C44.4149 159.43 44.3985 159.877 44.3907 160.341C44.35 161.479 44.3179 162.69 44.2851 163.951C44.2687 164.544 44.2608 165.138 44.2366 165.756C44.0497 174.491 43.9477 185.48 44.0169 197.077L52.4409 197.725C52.7925 195.289 55.0425 179.721 56.4335 170.699C57.9215 171.862 59.6043 172.829 62.3857 173.285C69.2239 174.391 70.7284 170.496 80.2581 169.845L86.0961 148.818C81.7925 147.688 75.8488 145.859 69.6769 143.143Z" fill="#FF9B21"/>
<path d="M56.4314 170.699L57.1184 167.096" stroke="#171659" stroke-width="0.5" stroke-miterlimit="10" stroke-linecap="round" stroke-linejoin="round"/>
<path d="M44.8203 232.065C44.8203 232.065 44.7632 239.131 47.6986 248.344C48.081 249.58 49.8944 249.425 50.0484 248.133C50.2032 246.929 50.3252 245.376 50.4308 243.343C50.6584 239.034 50.7482 235.066 50.4879 225.577C50.4879 225.577 53.1958 200.972 52.3904 198.06C52.3904 198.06 52.4082 197.937 52.4389 197.725L44.0149 197.077C44.0841 208.679 44.3238 220.891 44.8203 232.065Z" fill="#FFCFC0"/>
<path d="M62.5869 81.8332C63.587 78.1173 63.7254 71.5637 63.7254 68.0669C63.7254 67.0183 63.0912 66.1073 62.1724 65.7007C61.9285 65.5866 61.6602 65.5138 61.3835 65.4895L57.9843 65.1728L57.6669 65.14C56.8294 65.0587 56.1303 65.7499 56.1624 66.5795C56.3415 70.4666 56.1382 72.4911 55.9263 73.5233C55.9185 72.3199 55.7879 68.8644 54.6744 68.7745C53.3083 68.6768 52.8774 72.1651 53.1214 76.3931C53.3575 80.6212 55.3492 81.1013 55.3984 82.8005C55.3984 82.8005 54.9911 100.521 52.4294 115.291L63.5135 115.968C63.7668 105.945 63.6662 93.8789 62.5869 81.8332Z" fill="#FFCFC0"/>
<path d="M57.9844 65.1728C57.9844 65.1728 58.6977 69.7219 57.9844 73.33" stroke="#FF8E77" stroke-width="0.5" stroke-miterlimit="10" stroke-linecap="round" stroke-linejoin="round"/>
<path d="M59.8262 65.344C59.8262 65.344 60.8341 69.4672 59.9567 73.3293" stroke="#FF8E77" stroke-width="0.5" stroke-miterlimit="10" stroke-linecap="round" stroke-linejoin="round"/>
<path d="M61.6033 65.5281C61.6033 65.5281 63.0314 68.5449 62.0655 73.7281" stroke="#FF8E77" stroke-width="0.5" stroke-miterlimit="10" stroke-linecap="round" stroke-linejoin="round"/>
<path d="M50.4879 225.577C50.4879 225.577 52.8063 228.441 52.5402 234.472C52.3383 239.05 52.797 240.916 53.0303 242.724C53.1045 243.3 52.9261 243.877 52.5395 244.311L50.5578 246.536C50.0813 247.071 49.2295 247.039 48.8094 246.459C48.0582 245.422 47.036 243.179 46.2441 238.334L50.4879 225.577Z" fill="#FFCFC0"/>
<path d="M50.5571 246.536C50.0805 247.071 49.2288 247.04 48.8086 246.46C48.0575 245.423 47.0352 243.179 46.2434 238.335" stroke="#FF8E77" stroke-width="0.5" stroke-miterlimit="10" stroke-linecap="round" stroke-linejoin="round"/>
<path d="M50.6812 237.42C50.6812 237.42 50.913 244.635 52.8469 243.839" stroke="#FF8E77" stroke-width="0.5" stroke-miterlimit="10" stroke-linecap="round" stroke-linejoin="round"/>
<path d="M48.8521 238.057C48.8521 238.057 49.3 246.713 51.622 245.341" stroke="#FF8E77" stroke-width="0.5" stroke-miterlimit="10" stroke-linecap="round" stroke-linejoin="round"/>
<path d="M54.9356 253.451C54.2201 255.59 52.6508 257.346 50.6099 258.305L38.7054 263.892L36.738 263.314C36.4698 263.233 36.2094 263.2 35.9412 263.2C34.4125 263.2 33.087 264.493 33.1769 266.144C33.2254 267.046 34.0144 267.729 34.9168 267.729H61.5791C64.2706 267.729 66.1324 265.038 65.1815 262.526L64.0187 259.427C63.3924 257.769 63.5472 255.915 64.4332 254.386C65.5845 252.404 67.3323 249.393 69.2569 246.068L58.9539 241.478L54.9356 253.451Z" fill="#FFCFC0"/>
<path d="M42.2085 264.712C42.2085 264.712 39.9722 265.664 40.6499 267.729" stroke="#FF8E77" stroke-width="0.5" stroke-miterlimit="10" stroke-linecap="round" stroke-linejoin="round"/>
<path d="M40.5223 264.712C40.5223 264.712 38.0755 265.393 38.7532 267.729" stroke="#FF8E77" stroke-width="0.5" stroke-miterlimit="10" stroke-linecap="round" stroke-linejoin="round"/>
<path d="M38.634 264.373C38.634 264.373 36.3135 265.8 37.1267 267.729" stroke="#FF8E77" stroke-width="0.5" stroke-miterlimit="10" stroke-linecap="round" stroke-linejoin="round"/>
<path d="M38.7054 263.891C38.7054 263.891 34.3318 263.767 34.916 267.729" stroke="#FF8E77" stroke-width="0.5" stroke-miterlimit="10" stroke-linecap="round" stroke-linejoin="round"/>
<path d="M231.039 202.644C231.039 202.644 227.922 196.952 227.516 184.348C227.109 171.745 223.857 142.066 276.032 123.459C276.032 123.459 268.985 175.336 230.769 190.176C230.769 190.176 230.208 198.172 233.741 202.373L231.039 202.644Z" fill="#FCAE4F"/>
<path d="M264.65 201.763V218.286C264.65 220.172 264.48 222.018 264.162 223.815C261.552 238.248 248.924 249.192 233.735 249.192C217.57 249.192 204.308 236.784 202.95 220.969C202.869 220.091 202.828 219.189 202.828 218.286V201.763H264.65Z" fill="#F4CC4D"/>
<path d="M197.952 270.268L202.83 218.283H264.648L269.527 270.268" stroke="#171659" stroke-miterlimit="10" stroke-linecap="round" stroke-linejoin="round"/>
<path d="M215.993 181.907C203.536 178.321 178.711 198.478 178.956 231.848C178.956 231.848 191.486 228.377 202.951 220.969C210.301 216.229 217.213 209.862 220.124 201.763C221.157 198.861 221.685 195.746 221.539 192.396C221.514 191.811 222.246 191.51 222.628 191.957C223.888 193.453 225.693 196.486 225.986 201.763H228.084C227.865 197.087 226.287 184.874 215.993 181.907Z" fill="#FF910B"/>
<path d="M182.658 225.477C182.658 225.477 199.958 188.278 216.583 185.568" stroke="#171659" stroke-width="0.5" stroke-miterlimit="10" stroke-linecap="round" stroke-linejoin="round"/>
<path d="M220.124 201.763C217.213 209.862 210.302 216.228 202.951 220.968" stroke="#171659" stroke-width="0.5" stroke-miterlimit="10" stroke-linecap="round" stroke-linejoin="round"/>
<path d="M282.945 236.256C282.945 236.256 273.92 231.133 264.162 223.815C255.722 217.481 246.728 209.504 242.59 201.763C241.216 199.218 240.37 196.697 240.248 194.265C240.248 194.265 236.198 193.168 238.166 201.763H236.271C235.458 197.957 234.426 189.224 240.793 185.565C249.062 180.825 269.122 180.28 276.57 197.494C284.027 214.708 282.945 236.256 282.945 236.256Z" fill="#FF9B21"/>
<path d="M264.163 223.815C255.722 217.481 246.729 209.504 242.59 201.763" stroke="#171659" stroke-width="0.5" stroke-miterlimit="10" stroke-linecap="round" stroke-linejoin="round"/>
<path d="M242.423 188.007C242.423 188.007 266.545 184.484 278.2 227.715" stroke="#171659" stroke-width="0.5" stroke-miterlimit="10" stroke-linecap="round" stroke-linejoin="round"/>
<path d="M230.226 186.11C230.226 186.11 245.949 148.978 269.527 129.712" stroke="#171659" stroke-width="0.5" stroke-miterlimit="10" stroke-linecap="round" stroke-linejoin="round"/>
<path d="M161.691 63.3653C176.115 57.2173 182.823 40.5405 176.675 26.1167C170.527 11.6928 153.851 4.98399 139.427 11.132C125.003 17.2801 118.294 33.9569 124.442 48.3807C130.59 62.8045 147.267 69.5133 161.691 63.3653Z" fill="#616161"/>
<path d="M150.563 61.7252C164.085 61.7252 175.047 50.7631 175.047 37.2408C175.047 23.7184 164.085 12.7563 150.563 12.7563C137.04 12.7563 126.078 23.7184 126.078 37.2408C126.078 50.7631 137.04 61.7252 150.563 61.7252Z" fill="#D9D9D9"/>
<path d="M150.563 14.9485V37.2408L160.255 26.0946" stroke="#FF9B21" stroke-miterlimit="10" stroke-linecap="round" stroke-linejoin="round"/>
<path d="M1.15804 179.315C-0.384943 179.315 -0.387083 181.713 1.15804 181.713C2.70102 181.713 2.70388 179.315 1.15804 179.315Z" fill="#FF9B21" fill-opacity="0.37"/>
<path d="M245.865 110.312C244.322 110.312 244.32 112.71 245.865 112.71C247.408 112.71 247.41 110.312 245.865 110.312Z" fill="#FF9B21" fill-opacity="0.37"/>
<path d="M90.8087 33.9829C89.2657 33.9829 89.2636 36.3805 90.8087 36.3805C92.3517 36.3812 92.3538 33.9829 90.8087 33.9829Z" fill="#FF9B21" fill-opacity="0.37"/>
<path d="M163.141 224.207C161.598 224.207 161.596 226.605 163.141 226.605C164.684 226.605 164.687 224.207 163.141 224.207Z" fill="#FF9B21" fill-opacity="0.37"/>
<path d="M224.684 258.575C223.141 258.575 223.139 260.973 224.684 260.973C226.227 260.973 226.23 258.575 224.684 258.575Z" fill="#FF9B21" fill-opacity="0.37"/>
<path d="M251.06 253.38C247.975 253.38 247.97 258.176 251.06 258.176C254.146 258.176 254.151 253.38 251.06 253.38Z" fill="#FF9B21" fill-opacity="0.37"/>
<path d="M29.2656 197.032C26.1796 197.032 26.1746 201.828 29.2656 201.828C32.3515 201.828 32.3565 197.032 29.2656 197.032Z" fill="#FF9B21" fill-opacity="0.37"/>
<path d="M207.9 55.9627C204.814 55.9627 204.809 60.7586 207.9 60.7586C210.986 60.7586 210.991 55.9627 207.9 55.9627Z" fill="#FF9B21" fill-opacity="0.37"/>
<path d="M101.599 62.3564C98.5129 62.3564 98.5079 67.1523 101.599 67.1523C104.684 67.1523 104.689 62.3564 101.599 62.3564Z" fill="#FF9B21" fill-opacity="0.37"/>
<path d="M231.079 132.692C227.993 132.692 227.988 137.488 231.079 137.488C234.165 137.488 234.17 132.692 231.079 132.692Z" fill="#FF9B21" fill-opacity="0.37"/>
<path d="M212.725 86.3157H153.517V151.231H212.725V86.3157Z" fill="#EFEFEF"/>
<path d="M205.174 144.795C204.488 143.125 204.061 140.953 203.555 138.714L200.59 140.328L201.919 143.178L200.454 144.874C199.931 144.908 199.897 144.987 199.639 145.13C198.983 145.489 199.044 146.055 199.044 146.055H204.333C204.984 146.055 205.421 145.397 205.174 144.795Z" fill="#FFCFC0"/>
<path d="M203.555 138.715L200.589 140.328L197.47 133.637C197.036 132.712 196.721 131.737 196.531 130.728L195.359 124.514L195.068 122.972C194.814 123.426 194.525 123.942 194.217 124.489C192.971 126.715 191.444 129.445 190.861 130.502C189.809 132.406 189.929 133.216 188.999 134.915C188.497 135.833 187.181 138.118 186.074 140.029L183.208 138.753L185.353 132.363L189.54 122.802L191.266 118.862C190.953 118.834 190.664 118.816 190.39 118.807L191.901 113.252C192.347 113.349 192.605 113.394 192.605 113.394C193.1 113.453 193.745 113.482 194.432 113.492C197.025 113.53 199.158 115.559 199.268 118.151C199.271 118.176 199.271 118.206 199.271 118.233C199.302 119.015 199.4 119.793 199.565 120.562C199.734 121.331 199.945 122.447 200.114 123.779C200.32 125.38 200.465 127.296 200.395 129.307C200.354 130.481 200.628 131.644 201.245 132.639C201.899 133.689 202.716 135.261 203.175 137.104C203.308 137.641 203.435 138.179 203.555 138.715Z" fill="#5E3800"/>
<path d="M178.087 111.935L177.277 113.967L179.205 114.686C179.205 114.686 179.22 113.223 179.456 112.033L178.087 111.935Z" fill="#FFCFC0"/>
<path d="M180.838 139.272C180.294 139.243 180.061 137.008 180.061 137.008" stroke="#FF8E77" stroke-width="0.5" stroke-miterlimit="10" stroke-linecap="round" stroke-linejoin="round"/>
<path d="M190.76 112.975L189.134 118.824C189.506 118.799 189.921 118.791 190.39 118.807L191.902 113.252C191.6 113.185 191.212 113.094 190.76 112.975Z" fill="#FFCFC0"/>
<path d="M178.136 112.25C178.136 112.931 177.925 113.556 177.566 114.075C176.986 114.911 176.02 115.458 174.925 115.458C173.152 115.458 171.716 114.023 171.716 112.25C171.716 111.524 171.956 110.86 172.361 110.322C172.944 109.545 173.875 109.039 174.925 109.039C176.697 109.039 178.136 110.478 178.136 112.25Z" fill="#FFCFC0"/>
<path d="M175.038 109.043C176.099 109.105 176.897 109.182 177.522 109.315C178.712 109.568 179.383 110.864 178.892 111.977C178.651 112.525 178.311 113.114 177.848 113.574L175.038 109.043Z" fill="#FFCFC0"/>
<path d="M178.655 114.48C178.655 114.48 178.153 114.523 177.565 115.145C176.977 115.767 174.443 115.953 173.034 114.946H173.032C172.159 114.358 171.638 113.37 171.648 112.248C171.654 111.526 172.313 110.339 172.699 109.789C172.93 109.825 173.278 110.065 173.622 110.538C174.188 110.42 175.875 110.194 176.57 111.513C176.57 111.513 178.146 112.488 178.58 113.693H177.976L178.655 114.48Z" fill="#171659"/>
<path d="M176.459 110.86C176.459 110.86 174.894 110.96 175.416 112.015C175.904 113.002 178.018 112.296 177.48 111.335" fill="#FFCFC0"/>
<path d="M175.896 111.833C175.896 111.833 175.415 111.449 176.225 111.228C176.843 111.06 176.992 111.569 176.992 111.569" stroke="#FF8E77" stroke-width="0.5" stroke-miterlimit="10" stroke-linecap="round" stroke-linejoin="round"/>
<path d="M176.425 111.195C176.425 111.195 176.007 111.752 176.729 111.91L176.425 111.195Z" fill="#FFCFC0"/>
<path d="M176.425 111.195C176.425 111.195 176.007 111.752 176.729 111.91" stroke="#FF8E77" stroke-width="0.5" stroke-miterlimit="10" stroke-linecap="round" stroke-linejoin="round"/>
<path d="M175.983 109.651C175.983 109.728 175.859 109.789 175.706 109.789C175.553 109.789 175.429 109.728 175.429 109.651C175.429 109.575 175.553 109.514 175.706 109.514C175.859 109.514 175.983 109.575 175.983 109.651Z" fill="#171659"/>
<path d="M174.497 109.883C174.497 109.883 174.36 109.427 174.641 109.134" stroke="#171659" stroke-width="0.5" stroke-miterlimit="10" stroke-linecap="round" stroke-linejoin="round"/>
<path d="M195.069 122.97L197.316 118.961" stroke="white" stroke-width="0.5" stroke-miterlimit="10" stroke-linecap="round" stroke-linejoin="round"/>
<path d="M191.267 118.861L191.605 118.061" stroke="white" stroke-width="0.5" stroke-miterlimit="10" stroke-linecap="round" stroke-linejoin="round"/>
<path d="M176.438 109.152L176.983 108.736C177.116 108.633 177.311 108.71 177.339 108.877L177.43 109.415" fill="#FFCFC0"/>
<path d="M178.893 111.977L178.087 111.935" stroke="#FF8E77" stroke-width="0.5" stroke-miterlimit="10" stroke-linecap="round" stroke-linejoin="round"/>
<path d="M177.845 109.789C177.845 109.789 177.826 110.244 177.43 110.395" stroke="#FF8E77" stroke-width="0.5" stroke-miterlimit="10" stroke-linecap="round" stroke-linejoin="round"/>
<path d="M173.549 114.812C173.549 115.435 173.043 115.941 172.419 115.941C171.796 115.941 171.29 115.436 171.29 114.812C171.29 114.188 171.796 113.683 172.419 113.683C173.043 113.683 173.549 114.188 173.549 114.812Z" fill="#FF9B21"/>
<path d="M173.351 115.458C173.351 116.208 172.744 116.816 171.994 116.816C171.245 116.816 170.637 116.208 170.637 115.458C170.637 114.709 171.245 114.101 171.994 114.101C172.744 114.101 173.351 114.709 173.351 115.458Z" fill="#171659"/>
<path d="M186.192 111.397H186.19C185.997 111.314 185.803 111.228 185.608 111.135C185.432 111.054 185.271 110.945 185.124 110.825C184.523 110.339 184.177 109.586 184.235 108.789C184.324 107.585 184.426 105.861 184.477 103.838L181.394 103.65C181.295 104.223 181.184 104.78 181.06 105.306C180.858 106.152 180.673 106.919 180.501 107.615C180.347 108.244 180.207 108.812 180.078 109.332C180.073 109.355 180.067 109.38 180.06 109.405C179.895 110.072 179.757 110.653 179.639 111.169C179.628 111.226 179.614 111.28 179.603 111.332C179.578 111.441 179.556 111.545 179.535 111.646C179.506 111.78 179.479 111.909 179.456 112.033C179.221 113.223 179.205 114.686 179.205 114.686C179.203 114.752 179.201 114.82 179.198 114.89C179.189 115.175 179.178 115.48 179.169 115.806C179.164 115.928 179.16 116.052 179.158 116.181C179.146 116.498 179.137 116.835 179.128 117.186C179.124 117.351 179.122 117.516 179.115 117.688C179.063 120.118 179.034 123.175 179.054 126.401L181.397 126.581C181.495 125.903 182.121 121.573 182.508 119.063C182.922 119.386 183.39 119.656 184.164 119.782C186.066 120.09 186.484 119.006 189.135 118.825L190.759 112.976C189.562 112.662 187.909 112.153 186.192 111.397Z" fill="#FF9B21"/>
<path d="M182.507 119.063L182.698 118.061" stroke="#171659" stroke-width="0.5" stroke-miterlimit="10" stroke-linecap="round" stroke-linejoin="round"/>
<path d="M179.277 136.134C179.277 136.134 179.261 138.099 180.078 140.662C180.184 141.006 180.689 140.963 180.732 140.604C180.775 140.269 180.809 139.837 180.838 139.271C180.901 138.073 180.926 136.969 180.854 134.329C180.854 134.329 181.607 127.484 181.383 126.674C181.383 126.674 181.388 126.64 181.397 126.581L179.053 126.401C179.072 129.628 179.139 133.026 179.277 136.134Z" fill="#FFCFC0"/>
<path d="M184.22 94.342C184.498 93.3083 184.536 91.4853 184.536 90.5125C184.536 90.2208 184.36 89.9674 184.104 89.8543C184.036 89.8225 183.962 89.8023 183.885 89.7955L182.939 89.7074L182.851 89.6983C182.618 89.6757 182.424 89.868 182.432 90.0987C182.482 91.18 182.426 91.7432 182.367 92.0304C182.365 91.6956 182.328 90.7344 182.019 90.7093C181.639 90.6822 181.519 91.6525 181.587 92.8287C181.652 94.0049 182.206 94.1384 182.22 94.6111C182.22 94.6111 182.107 99.5406 181.394 103.649L184.477 103.838C184.548 101.049 184.52 97.6929 184.22 94.342Z" fill="#FFCFC0"/>
<path d="M182.939 89.7074C182.939 89.7074 183.138 90.9729 182.939 91.9766" stroke="#FF8E77" stroke-width="0.5" stroke-miterlimit="10" stroke-linecap="round" stroke-linejoin="round"/>
<path d="M183.452 89.7551C183.452 89.7551 183.732 90.9021 183.488 91.9764" stroke="#FF8E77" stroke-width="0.5" stroke-miterlimit="10" stroke-linecap="round" stroke-linejoin="round"/>
<path d="M183.946 89.8062C183.946 89.8062 184.343 90.6454 184.074 92.0873" stroke="#FF8E77" stroke-width="0.5" stroke-miterlimit="10" stroke-linecap="round" stroke-linejoin="round"/>
<path d="M180.854 134.329C180.854 134.329 181.499 135.126 181.425 136.803C181.369 138.077 181.496 138.596 181.561 139.099C181.582 139.259 181.532 139.42 181.425 139.541L180.873 140.159C180.741 140.308 180.504 140.299 180.387 140.138C180.178 139.85 179.894 139.225 179.673 137.878L180.854 134.329Z" fill="#FFCFC0"/>
<path d="M180.873 140.159C180.741 140.308 180.504 140.3 180.387 140.138C180.178 139.85 179.893 139.226 179.673 137.878" stroke="#FF8E77" stroke-width="0.5" stroke-miterlimit="10" stroke-linecap="round" stroke-linejoin="round"/>
<path d="M180.907 137.623C180.907 137.623 180.972 139.631 181.51 139.409" stroke="#FF8E77" stroke-width="0.5" stroke-miterlimit="10" stroke-linecap="round" stroke-linejoin="round"/>
<path d="M180.399 137.801C180.399 137.801 180.523 140.209 181.169 139.827" stroke="#FF8E77" stroke-width="0.5" stroke-miterlimit="10" stroke-linecap="round" stroke-linejoin="round"/>
<path d="M182.091 142.083C181.892 142.678 181.456 143.166 180.888 143.433L177.576 144.987L177.029 144.827C176.954 144.804 176.882 144.795 176.807 144.795C176.382 144.795 176.013 145.155 176.038 145.614C176.052 145.865 176.271 146.055 176.522 146.055H183.939C184.688 146.055 185.206 145.306 184.941 144.607L184.618 143.746C184.444 143.284 184.487 142.768 184.733 142.343C185.054 141.792 185.54 140.954 186.075 140.029L183.209 138.752L182.091 142.083Z" fill="#FFCFC0"/>
<path d="M178.551 145.216C178.551 145.216 177.929 145.481 178.117 146.055" stroke="#FF8E77" stroke-width="0.5" stroke-miterlimit="10" stroke-linecap="round" stroke-linejoin="round"/>
<path d="M178.082 145.216C178.082 145.216 177.401 145.405 177.589 146.055" stroke="#FF8E77" stroke-width="0.5" stroke-miterlimit="10" stroke-linecap="round" stroke-linejoin="round"/>
<path d="M177.556 145.121C177.556 145.121 176.911 145.518 177.137 146.055" stroke="#FF8E77" stroke-width="0.5" stroke-miterlimit="10" stroke-linecap="round" stroke-linejoin="round"/>
<path d="M177.576 144.987C177.576 144.987 176.36 144.953 176.522 146.055" stroke="#FF8E77" stroke-width="0.5" stroke-miterlimit="10" stroke-linecap="round" stroke-linejoin="round"/>
</svg>
